<svg width="2223" height="1582" viewBox="0 0 2223 1582" fill="none" xmlns="http://www.w3.org/2000/svg">
<rect width="1024" height="753" transform="translate(599 757)" fill="#121214"/>
<g opacity="0.2" filter="url(#filter0_f_175_1815)">
<ellipse cx="1111.5" cy="791" rx="670.5" ry="350" fill="#35875D"/>
</g>
<path d="M632.035 1027C633.53 1027 634.662 1027.63 635.431 1028.89C636.213 1030.14 636.605 1031.95 636.605 1034.34C636.605 1036.72 636.213 1038.54 635.431 1039.8C634.662 1041.06 633.53 1041.69 632.035 1041.69C630.554 1041.69 629.422 1041.06 628.639 1039.8C627.856 1038.54 627.465 1036.72 627.465 1034.34C627.465 1031.97 627.856 1030.15 628.639 1028.89C629.422 1027.63 630.554 1027 632.035 1027ZM628.953 1034.34C628.953 1036.03 629.107 1037.35 629.415 1038.31L634.068 1029.1C633.579 1028.45 632.901 1028.12 632.035 1028.12C631.071 1028.12 630.316 1028.63 629.771 1029.66C629.226 1030.67 628.953 1032.23 628.953 1034.34ZM632.035 1040.55C633.013 1040.55 633.775 1040.04 634.32 1039.03C634.865 1038.01 635.137 1036.44 635.137 1034.34C635.137 1032.55 634.963 1031.16 634.613 1030.18L629.96 1039.47C630.463 1040.19 631.154 1040.55 632.035 1040.55Z" fill="url(#paint0_linear_175_1815)" fill-opacity="0.6"/>
<path d="M633.293 1064.13H636.374V1065.24H628.387V1064.13H631.951V1052.46L628.555 1054.47L627.968 1053.54L632.161 1050.96H633.293V1064.13Z" fill="url(#paint1_linear_175_1815)" fill-opacity="0.6"/>
<path d="M632.035 1074.5C633.53 1074.5 634.662 1075.13 635.431 1076.39C636.213 1077.64 636.605 1079.46 636.605 1081.84C636.605 1084.22 636.213 1086.04 635.431 1087.3C634.662 1088.56 633.53 1089.2 632.035 1089.2C630.554 1089.2 629.422 1088.56 628.639 1087.3C627.856 1086.04 627.465 1084.22 627.465 1081.84C627.465 1079.47 627.856 1077.65 628.639 1076.39C629.422 1075.13 630.554 1074.5 632.035 1074.5ZM628.953 1081.84C628.953 1083.53 629.107 1084.85 629.415 1085.81L634.068 1076.6C633.579 1075.95 632.901 1075.62 632.035 1075.62C631.071 1075.62 630.316 1076.14 629.771 1077.16C629.226 1078.17 628.953 1079.73 628.953 1081.84ZM632.035 1088.05C633.013 1088.05 633.775 1087.55 634.32 1086.53C634.865 1085.51 635.137 1083.94 635.137 1081.84C635.137 1080.05 634.963 1078.67 634.613 1077.68L629.96 1086.97C630.463 1087.69 631.154 1088.05 632.035 1088.05Z" fill="url(#paint2_linear_175_1815)" fill-opacity="0.6"/>
<path d="M633.293 1111.64H636.374V1112.74H628.387V1111.64H631.951V1099.96L628.555 1101.97L627.968 1101.04L632.161 1098.46H633.293V1111.64Z" fill="url(#paint3_linear_175_1815)" fill-opacity="0.6"/>
<path d="M633.293 1135.39H636.374V1136.49H628.387V1135.39H631.951V1123.71L628.555 1125.72L627.968 1124.79L632.161 1122.21H633.293V1135.39Z" fill="url(#paint4_linear_175_1815)" fill-opacity="0.6"/>
<path d="M632.035 1145.76C633.53 1145.76 634.662 1146.39 635.431 1147.65C636.213 1148.89 636.605 1150.71 636.605 1153.09C636.605 1155.47 636.213 1157.3 635.431 1158.56C634.662 1159.82 633.53 1160.45 632.035 1160.45C630.554 1160.45 629.422 1159.82 628.639 1158.56C627.856 1157.3 627.465 1155.47 627.465 1153.09C627.465 1150.72 627.856 1148.91 628.639 1147.65C629.422 1146.39 630.554 1145.76 632.035 1145.76ZM628.953 1153.09C628.953 1154.78 629.107 1156.1 629.415 1157.06L634.068 1147.85C633.579 1147.2 632.901 1146.88 632.035 1146.88C631.071 1146.88 630.316 1147.39 629.771 1148.42C629.226 1149.43 628.953 1150.99 628.953 1153.09ZM632.035 1159.31C633.013 1159.31 633.775 1158.8 634.32 1157.79C634.865 1156.76 635.137 1155.2 635.137 1153.09C635.137 1151.3 634.963 1149.92 634.613 1148.93L629.96 1158.22C630.463 1158.95 631.154 1159.31 632.035 1159.31Z" fill="url(#paint5_linear_175_1815)" fill-opacity="0.6"/>
<path d="M633.293 1182.89H636.374V1183.99H628.387V1182.89H631.951V1171.21L628.555 1173.23L627.968 1172.29L632.161 1169.71H633.293V1182.89Z" fill="url(#paint6_linear_175_1815)" fill-opacity="0.6"/>
<path d="M632.035 1193.26C633.53 1193.26 634.662 1193.89 635.431 1195.15C636.213 1196.4 636.605 1198.21 636.605 1200.59C636.605 1202.98 636.213 1204.8 635.431 1206.06C634.662 1207.32 633.53 1207.95 632.035 1207.95C630.554 1207.95 629.422 1207.32 628.639 1206.06C627.856 1204.8 627.465 1202.98 627.465 1200.59C627.465 1198.22 627.856 1196.41 628.639 1195.15C629.422 1193.89 630.554 1193.26 632.035 1193.26ZM628.953 1200.59C628.953 1202.28 629.107 1203.61 629.415 1204.56L634.068 1195.36C633.579 1194.71 632.901 1194.38 632.035 1194.38C631.071 1194.38 630.316 1194.89 629.771 1195.92C629.226 1196.93 628.953 1198.49 628.953 1200.59ZM632.035 1206.81C633.013 1206.81 633.775 1206.3 634.32 1205.29C634.865 1204.27 635.137 1202.7 635.137 1200.59C635.137 1198.81 634.963 1197.42 634.613 1196.44L629.96 1205.73C630.463 1206.45 631.154 1206.81 632.035 1206.81Z" fill="url(#paint7_linear_175_1815)" fill-opacity="0.6"/>
<path d="M632.035 1217.01C633.53 1217.01 634.662 1217.64 635.431 1218.9C636.213 1220.15 636.605 1221.96 636.605 1224.34C636.605 1226.73 636.213 1228.55 635.431 1229.81C634.662 1231.07 633.53 1231.7 632.035 1231.7C630.554 1231.7 629.422 1231.07 628.639 1229.81C627.856 1228.55 627.465 1226.73 627.465 1224.34C627.465 1221.98 627.856 1220.16 628.639 1218.9C629.422 1217.64 630.554 1217.01 632.035 1217.01ZM628.953 1224.34C628.953 1226.03 629.107 1227.36 629.415 1228.31L634.068 1219.11C633.579 1218.46 632.901 1218.13 632.035 1218.13C631.071 1218.13 630.316 1218.64 629.771 1219.67C629.226 1220.68 628.953 1222.24 628.953 1224.34ZM632.035 1230.56C633.013 1230.56 633.775 1230.05 634.32 1229.04C634.865 1228.02 635.137 1226.45 635.137 1224.34C635.137 1222.56 634.963 1221.17 634.613 1220.19L629.96 1229.48C630.463 1230.2 631.154 1230.56 632.035 1230.56Z" fill="url(#paint8_linear_175_1815)" fill-opacity="0.6"/>
<path d="M633.293 1254.14H636.374V1255.24H628.387V1254.14H631.951V1242.46L628.555 1244.48L627.968 1243.54L632.161 1240.97H633.293V1254.14Z" fill="url(#paint9_linear_175_1815)" fill-opacity="0.6"/>
<path d="M632.035 1264.51C633.53 1264.51 634.662 1265.14 635.431 1266.4C636.213 1267.65 636.605 1269.46 636.605 1271.85C636.605 1274.23 636.213 1276.05 635.431 1277.31C634.662 1278.57 633.53 1279.2 632.035 1279.2C630.554 1279.2 629.422 1278.57 628.639 1277.31C627.856 1276.05 627.465 1274.23 627.465 1271.85C627.465 1269.48 627.856 1267.66 628.639 1266.4C629.422 1265.14 630.554 1264.51 632.035 1264.51ZM628.953 1271.85C628.953 1273.54 629.107 1274.86 629.415 1275.82L634.068 1266.61C633.579 1265.96 632.901 1265.63 632.035 1265.63C631.071 1265.63 630.316 1266.15 629.771 1267.17C629.226 1268.18 628.953 1269.74 628.953 1271.85ZM632.035 1278.06C633.013 1278.06 633.775 1277.55 634.32 1276.54C634.865 1275.52 635.137 1273.95 635.137 1271.85C635.137 1270.06 634.963 1268.67 634.613 1267.69L629.96 1276.98C630.463 1277.7 631.154 1278.06 632.035 1278.06Z" fill="url(#paint10_linear_175_1815)" fill-opacity="0.6"/>
<path d="M633.293 1301.65H636.374V1302.75H628.387V1301.65H631.951V1289.97L628.555 1291.98L627.968 1291.05L632.161 1288.47H633.293V1301.65Z" fill="url(#paint11_linear_175_1815)" fill-opacity="0.6"/>
<path d="M633.293 1325.4H636.374V1326.5H628.387V1325.4H631.951V1313.72L628.555 1315.73L627.968 1314.8L632.161 1312.22H633.293V1325.4Z" fill="url(#paint12_linear_175_1815)" fill-opacity="0.6"/>
<path d="M670.965 1074.5C672.46 1074.5 673.592 1075.13 674.361 1076.39C675.144 1077.64 675.535 1079.46 675.535 1081.84C675.535 1084.22 675.144 1086.04 674.361 1087.3C673.592 1088.56 672.46 1089.2 670.965 1089.2C669.484 1089.2 668.352 1088.56 667.569 1087.3C666.787 1086.04 666.395 1084.22 666.395 1081.84C666.395 1079.47 666.787 1077.65 667.569 1076.39C668.352 1075.13 669.484 1074.5 670.965 1074.5ZM667.884 1081.84C667.884 1083.53 668.037 1084.85 668.345 1085.81L672.998 1076.6C672.509 1075.95 671.832 1075.62 670.965 1075.62C670.001 1075.62 669.246 1076.14 668.701 1077.16C668.156 1078.17 667.884 1079.73 667.884 1081.84ZM670.965 1088.05C671.943 1088.05 672.705 1087.55 673.25 1086.53C673.795 1085.51 674.068 1083.94 674.068 1081.84C674.068 1080.05 673.893 1078.67 673.543 1077.68L668.89 1086.97C669.393 1087.69 670.085 1088.05 670.965 1088.05Z" fill="url(#paint13_linear_175_1815)" fill-opacity="0.6"/>
<path d="M672.223 1111.64H675.304V1112.74H667.318V1111.64H670.881V1099.96L667.485 1101.97L666.898 1101.04L671.091 1098.46H672.223V1111.64Z" fill="url(#paint14_linear_175_1815)" fill-opacity="0.6"/>
<path d="M670.965 1122C672.46 1122 673.592 1122.63 674.361 1123.9C675.144 1125.14 675.535 1126.96 675.535 1129.34C675.535 1131.72 675.144 1133.55 674.361 1134.81C673.592 1136.07 672.46 1136.7 670.965 1136.7C669.484 1136.7 668.352 1136.07 667.569 1134.81C666.787 1133.55 666.395 1131.72 666.395 1129.34C666.395 1126.97 666.787 1125.16 667.569 1123.9C668.352 1122.63 669.484 1122 670.965 1122ZM667.884 1129.34C667.884 1131.03 668.037 1132.35 668.345 1133.31L672.998 1124.1C672.509 1123.45 671.832 1123.13 670.965 1123.13C670.001 1123.13 669.246 1123.64 668.701 1124.66C668.156 1125.68 667.884 1127.23 667.884 1129.34ZM670.965 1135.55C671.943 1135.55 672.705 1135.05 673.25 1134.04C673.795 1133.01 674.068 1131.45 674.068 1129.34C674.068 1127.55 673.893 1126.17 673.543 1125.18L668.89 1134.47C669.393 1135.19 670.085 1135.55 670.965 1135.55Z" fill="url(#paint15_linear_175_1815)" fill-opacity="0.6"/>
<path d="M670.965 1145.76C672.46 1145.76 673.592 1146.39 674.361 1147.65C675.144 1148.89 675.535 1150.71 675.535 1153.09C675.535 1155.47 675.144 1157.3 674.361 1158.56C673.592 1159.82 672.46 1160.45 670.965 1160.45C669.484 1160.45 668.352 1159.82 667.569 1158.56C666.787 1157.3 666.395 1155.47 666.395 1153.09C666.395 1150.72 666.787 1148.91 667.569 1147.65C668.352 1146.39 669.484 1145.76 670.965 1145.76ZM667.884 1153.09C667.884 1154.78 668.037 1156.1 668.345 1157.06L672.998 1147.85C672.509 1147.2 671.832 1146.88 670.965 1146.88C670.001 1146.88 669.246 1147.39 668.701 1148.42C668.156 1149.43 667.884 1150.99 667.884 1153.09ZM670.965 1159.31C671.943 1159.31 672.705 1158.8 673.25 1157.79C673.795 1156.76 674.068 1155.2 674.068 1153.09C674.068 1151.3 673.893 1149.92 673.543 1148.93L668.89 1158.22C669.393 1158.95 670.085 1159.31 670.965 1159.31Z" fill="url(#paint16_linear_175_1815)" fill-opacity="0.6"/>
<path d="M672.223 1182.89H675.304V1183.99H667.318V1182.89H670.881V1171.21L667.485 1173.23L666.898 1172.29L671.091 1169.71H672.223V1182.89Z" fill="url(#paint17_linear_175_1815)" fill-opacity="0.6"/>
<path d="M670.965 1193.26C672.46 1193.26 673.592 1193.89 674.361 1195.15C675.144 1196.4 675.535 1198.21 675.535 1200.59C675.535 1202.98 675.144 1204.8 674.361 1206.06C673.592 1207.32 672.46 1207.95 670.965 1207.95C669.484 1207.95 668.352 1207.32 667.569 1206.06C666.787 1204.8 666.395 1202.98 666.395 1200.59C666.395 1198.22 666.787 1196.41 667.569 1195.15C668.352 1193.89 669.484 1193.26 670.965 1193.26ZM667.884 1200.59C667.884 1202.28 668.037 1203.61 668.345 1204.56L672.998 1195.36C672.509 1194.71 671.832 1194.38 670.965 1194.38C670.001 1194.38 669.246 1194.89 668.701 1195.92C668.156 1196.93 667.884 1198.49 667.884 1200.59ZM670.965 1206.81C671.943 1206.81 672.705 1206.3 673.25 1205.29C673.795 1204.27 674.068 1202.7 674.068 1200.59C674.068 1198.81 673.893 1197.42 673.543 1196.44L668.89 1205.73C669.393 1206.45 670.085 1206.81 670.965 1206.81Z" fill="url(#paint18_linear_175_1815)" fill-opacity="0.6"/>
<path d="M672.223 1230.39H675.304V1231.49H667.318V1230.39H670.881V1218.71L667.485 1220.73L666.898 1219.79L671.091 1217.22H672.223V1230.39Z" fill="url(#paint19_linear_175_1815)" fill-opacity="0.6"/>
<path d="M670.965 1240.76C672.46 1240.76 673.592 1241.39 674.361 1242.65C675.144 1243.9 675.535 1245.71 675.535 1248.1C675.535 1250.48 675.144 1252.3 674.361 1253.56C673.592 1254.82 672.46 1255.45 670.965 1255.45C669.484 1255.45 668.352 1254.82 667.569 1253.56C666.787 1252.3 666.395 1250.48 666.395 1248.1C666.395 1245.73 666.787 1243.91 667.569 1242.65C668.352 1241.39 669.484 1240.76 670.965 1240.76ZM667.884 1248.1C667.884 1249.79 668.037 1251.11 668.345 1252.07L672.998 1242.86C672.509 1242.21 671.832 1241.88 670.965 1241.88C670.001 1241.88 669.246 1242.39 668.701 1243.42C668.156 1244.43 667.884 1245.99 667.884 1248.1ZM670.965 1254.31C671.943 1254.31 672.705 1253.8 673.25 1252.79C673.795 1251.77 674.068 1250.2 674.068 1248.1C674.068 1246.31 673.893 1244.92 673.543 1243.94L668.89 1253.23C669.393 1253.95 670.085 1254.31 670.965 1254.31Z" fill="url(#paint20_linear_175_1815)" fill-opacity="0.6"/>
<path d="M670.965 1264.51C672.46 1264.51 673.592 1265.14 674.361 1266.4C675.144 1267.65 675.535 1269.46 675.535 1271.85C675.535 1274.23 675.144 1276.05 674.361 1277.31C673.592 1278.57 672.46 1279.2 670.965 1279.2C669.484 1279.2 668.352 1278.57 667.569 1277.31C666.787 1276.05 666.395 1274.23 666.395 1271.85C666.395 1269.48 666.787 1267.66 667.569 1266.4C668.352 1265.14 669.484 1264.51 670.965 1264.51ZM667.884 1271.85C667.884 1273.54 668.037 1274.86 668.345 1275.82L672.998 1266.61C672.509 1265.96 671.832 1265.63 670.965 1265.63C670.001 1265.63 669.246 1266.15 668.701 1267.17C668.156 1268.18 667.884 1269.74 667.884 1271.85ZM670.965 1278.06C671.943 1278.06 672.705 1277.55 673.25 1276.54C673.795 1275.52 674.068 1273.95 674.068 1271.85C674.068 1270.06 673.893 1268.67 673.543 1267.69L668.89 1276.98C669.393 1277.7 670.085 1278.06 670.965 1278.06Z" fill="url(#paint21_linear_175_1815)" fill-opacity="0.6"/>
<path d="M672.223 1301.65H675.304V1302.75H667.318V1301.65H670.881V1289.97L667.485 1291.98L666.898 1291.05L671.091 1288.47H672.223V1301.65Z" fill="url(#paint22_linear_175_1815)" fill-opacity="0.6"/>
<path d="M670.965 1312.01C672.46 1312.01 673.592 1312.64 674.361 1313.9C675.144 1315.15 675.535 1316.97 675.535 1319.35C675.535 1321.73 675.144 1323.55 674.361 1324.81C673.592 1326.08 672.46 1326.71 670.965 1326.71C669.484 1326.71 668.352 1326.08 667.569 1324.81C666.787 1323.55 666.395 1321.73 666.395 1319.35C666.395 1316.98 666.787 1315.16 667.569 1313.9C668.352 1312.64 669.484 1312.01 670.965 1312.01ZM667.884 1319.35C667.884 1321.04 668.037 1322.36 668.345 1323.32L672.998 1314.11C672.509 1313.46 671.832 1313.13 670.965 1313.13C670.001 1313.13 669.246 1313.65 668.701 1314.67C668.156 1315.68 667.884 1317.24 667.884 1319.35ZM670.965 1325.56C671.943 1325.56 672.705 1325.06 673.25 1324.05C673.795 1323.02 674.068 1321.45 674.068 1319.35C674.068 1317.56 673.893 1316.18 673.543 1315.19L668.89 1324.48C669.393 1325.2 670.085 1325.56 670.965 1325.56Z" fill="url(#paint23_linear_175_1815)" fill-opacity="0.6"/>
<path d="M672.223 1349.15H675.304V1350.25H667.318V1349.15H670.881V1337.47L667.485 1339.48L666.898 1338.55L671.091 1335.97H672.223V1349.15Z" fill="url(#paint24_linear_175_1815)" fill-opacity="0.6"/>
<path d="M672.223 1372.9H675.304V1374H667.318V1372.9H670.881V1361.22L667.485 1363.23L666.898 1362.3L671.091 1359.72H672.223V1372.9Z" fill="url(#paint25_linear_175_1815)" fill-opacity="0.6"/>
<path d="M612.57 1098.25C614.065 1098.25 615.197 1098.88 615.966 1100.14C616.748 1101.39 617.14 1103.21 617.14 1105.59C617.14 1107.97 616.748 1109.79 615.966 1111.05C615.197 1112.32 614.065 1112.95 612.57 1112.95C611.088 1112.95 609.956 1112.32 609.174 1111.05C608.391 1109.79 608 1107.97 608 1105.59C608 1103.22 608.391 1101.41 609.174 1100.14C609.956 1098.88 611.088 1098.25 612.57 1098.25ZM609.488 1105.59C609.488 1107.28 609.642 1108.6 609.95 1109.56L614.603 1100.35C614.114 1099.7 613.436 1099.38 612.57 1099.38C611.606 1099.38 610.851 1099.89 610.306 1100.91C609.761 1101.92 609.488 1103.48 609.488 1105.59ZM612.57 1111.8C613.548 1111.8 614.31 1111.3 614.855 1110.29C615.4 1109.26 615.672 1107.7 615.672 1105.59C615.672 1103.8 615.498 1102.42 615.148 1101.43L610.495 1110.72C610.998 1111.44 611.689 1111.8 612.57 1111.8Z" fill="url(#paint26_linear_175_1815)" fill-opacity="0.6"/>
<path d="M612.57 1122C614.065 1122 615.197 1122.63 615.966 1123.9C616.748 1125.14 617.14 1126.96 617.14 1129.34C617.14 1131.72 616.748 1133.55 615.966 1134.81C615.197 1136.07 614.065 1136.7 612.57 1136.7C611.088 1136.7 609.956 1136.07 609.174 1134.81C608.391 1133.55 608 1131.72 608 1129.34C608 1126.97 608.391 1125.16 609.174 1123.9C609.956 1122.63 611.088 1122 612.57 1122ZM609.488 1129.34C609.488 1131.03 609.642 1132.35 609.95 1133.31L614.603 1124.1C614.114 1123.45 613.436 1123.13 612.57 1123.13C611.606 1123.13 610.851 1123.64 610.306 1124.66C609.761 1125.68 609.488 1127.23 609.488 1129.34ZM612.57 1135.55C613.548 1135.55 614.31 1135.05 614.855 1134.04C615.4 1133.01 615.672 1131.45 615.672 1129.34C615.672 1127.55 615.498 1126.17 615.148 1125.18L610.495 1134.47C610.998 1135.19 611.689 1135.55 612.57 1135.55Z" fill="url(#paint27_linear_175_1815)" fill-opacity="0.6"/>
<path d="M613.828 1159.14H616.909V1160.24H608.922V1159.14H612.486V1147.46L609.09 1149.48L608.503 1148.54L612.696 1145.96H613.828V1159.14Z" fill="url(#paint28_linear_175_1815)" fill-opacity="0.6"/>
<path d="M612.57 1169.51C614.065 1169.51 615.197 1170.14 615.966 1171.4C616.748 1172.64 617.14 1174.46 617.14 1176.84C617.14 1179.23 616.748 1181.05 615.966 1182.31C615.197 1183.57 614.065 1184.2 612.57 1184.2C611.088 1184.2 609.956 1183.57 609.174 1182.31C608.391 1181.05 608 1179.23 608 1176.84C608 1174.47 608.391 1172.66 609.174 1171.4C609.956 1170.14 611.088 1169.51 612.57 1169.51ZM609.488 1176.84C609.488 1178.53 609.642 1179.86 609.95 1180.81L614.603 1171.61C614.114 1170.95 613.436 1170.63 612.57 1170.63C611.606 1170.63 610.851 1171.14 610.306 1172.17C609.761 1173.18 609.488 1174.74 609.488 1176.84ZM612.57 1183.06C613.548 1183.06 614.31 1182.55 614.855 1181.54C615.4 1180.51 615.672 1178.95 615.672 1176.84C615.672 1175.06 615.498 1173.67 615.148 1172.69L610.495 1181.98C610.998 1182.7 611.689 1183.06 612.57 1183.06Z" fill="url(#paint29_linear_175_1815)" fill-opacity="0.6"/>
<path d="M613.828 1206.64H616.909V1207.74H608.922V1206.64H612.486V1194.96L609.09 1196.98L608.503 1196.04L612.696 1193.47H613.828V1206.64Z" fill="url(#paint30_linear_175_1815)" fill-opacity="0.6"/>
<path d="M613.828 1230.39H616.909V1231.49H608.922V1230.39H612.486V1218.71L609.09 1220.73L608.503 1219.79L612.696 1217.22H613.828V1230.39Z" fill="url(#paint31_linear_175_1815)" fill-opacity="0.6"/>
<path d="M652.758 1064.13H655.839V1065.24H647.853V1064.13H651.416V1052.46L648.02 1054.47L647.433 1053.54L651.626 1050.96H652.758V1064.13Z" fill="url(#paint32_linear_175_1815)" fill-opacity="0.6"/>
<path d="M651.5 1074.5C652.995 1074.5 654.127 1075.13 654.896 1076.39C655.679 1077.64 656.07 1079.46 656.07 1081.84C656.07 1084.22 655.679 1086.04 654.896 1087.3C654.127 1088.56 652.995 1089.2 651.5 1089.2C650.019 1089.2 648.887 1088.56 648.104 1087.3C647.321 1086.04 646.93 1084.22 646.93 1081.84C646.93 1079.47 647.321 1077.65 648.104 1076.39C648.887 1075.13 650.019 1074.5 651.5 1074.5ZM648.419 1081.84C648.419 1083.53 648.572 1084.85 648.88 1085.81L653.533 1076.6C653.044 1075.95 652.366 1075.62 651.5 1075.62C650.536 1075.62 649.781 1076.14 649.236 1077.16C648.691 1078.17 648.419 1079.73 648.419 1081.84ZM651.5 1088.05C652.478 1088.05 653.24 1087.55 653.785 1086.53C654.33 1085.51 654.602 1083.94 654.602 1081.84C654.602 1080.05 654.428 1078.67 654.078 1077.68L649.425 1086.97C649.928 1087.69 650.62 1088.05 651.5 1088.05Z" fill="url(#paint33_linear_175_1815)" fill-opacity="0.6"/>
<path d="M652.758 1111.64H655.839V1112.74H647.853V1111.64H651.416V1099.96L648.02 1101.97L647.433 1101.04L651.626 1098.46H652.758V1111.64Z" fill="url(#paint34_linear_175_1815)" fill-opacity="0.6"/>
<path d="M652.758 1135.39H655.839V1136.49H647.853V1135.39H651.416V1123.71L648.02 1125.72L647.433 1124.79L651.626 1122.21H652.758V1135.39Z" fill="url(#paint35_linear_175_1815)" fill-opacity="0.6"/>
<path d="M651.5 1145.76C652.995 1145.76 654.127 1146.39 654.896 1147.65C655.679 1148.89 656.07 1150.71 656.07 1153.09C656.07 1155.47 655.679 1157.3 654.896 1158.56C654.127 1159.82 652.995 1160.45 651.5 1160.45C650.019 1160.45 648.887 1159.82 648.104 1158.56C647.321 1157.3 646.93 1155.47 646.93 1153.09C646.93 1150.72 647.321 1148.91 648.104 1147.65C648.887 1146.39 650.019 1145.76 651.5 1145.76ZM648.419 1153.09C648.419 1154.78 648.572 1156.1 648.88 1157.06L653.533 1147.85C653.044 1147.2 652.366 1146.88 651.5 1146.88C650.536 1146.88 649.781 1147.39 649.236 1148.42C648.691 1149.43 648.419 1150.99 648.419 1153.09ZM651.5 1159.31C652.478 1159.31 653.24 1158.8 653.785 1157.79C654.33 1156.76 654.602 1155.2 654.602 1153.09C654.602 1151.3 654.428 1149.92 654.078 1148.93L649.425 1158.22C649.928 1158.95 650.62 1159.31 651.5 1159.31Z" fill="url(#paint36_linear_175_1815)" fill-opacity="0.6"/>
<path d="M652.758 1182.89H655.839V1183.99H647.853V1182.89H651.416V1171.21L648.02 1173.23L647.433 1172.29L651.626 1169.71H652.758V1182.89Z" fill="url(#paint37_linear_175_1815)" fill-opacity="0.6"/>
<path d="M652.758 1206.64H655.839V1207.74H647.853V1206.64H651.416V1194.96L648.02 1196.98L647.433 1196.04L651.626 1193.47H652.758V1206.64Z" fill="url(#paint38_linear_175_1815)" fill-opacity="0.6"/>
<path d="M651.5 1217.01C652.995 1217.01 654.127 1217.64 654.896 1218.9C655.679 1220.15 656.07 1221.96 656.07 1224.34C656.07 1226.73 655.679 1228.55 654.896 1229.81C654.127 1231.07 652.995 1231.7 651.5 1231.7C650.019 1231.7 648.887 1231.07 648.104 1229.81C647.321 1228.55 646.93 1226.73 646.93 1224.34C646.93 1221.98 647.321 1220.16 648.104 1218.9C648.887 1217.64 650.019 1217.01 651.5 1217.01ZM648.419 1224.34C648.419 1226.03 648.572 1227.36 648.88 1228.31L653.533 1219.11C653.044 1218.46 652.366 1218.13 651.5 1218.13C650.536 1218.13 649.781 1218.64 649.236 1219.67C648.691 1220.68 648.419 1222.24 648.419 1224.34ZM651.5 1230.56C652.478 1230.56 653.24 1230.05 653.785 1229.04C654.33 1228.02 654.602 1226.45 654.602 1224.34C654.602 1222.56 654.428 1221.17 654.078 1220.19L649.425 1229.48C649.928 1230.2 650.62 1230.56 651.5 1230.56Z" fill="url(#paint39_linear_175_1815)" fill-opacity="0.6"/>
<path d="M652.758 1254.14H655.839V1255.24H647.853V1254.14H651.416V1242.46L648.02 1244.48L647.433 1243.54L651.626 1240.97H652.758V1254.14Z" fill="url(#paint40_linear_175_1815)" fill-opacity="0.6"/>
<path d="M651.5 1264.51C652.995 1264.51 654.127 1265.14 654.896 1266.4C655.679 1267.65 656.07 1269.46 656.07 1271.85C656.07 1274.23 655.679 1276.05 654.896 1277.31C654.127 1278.57 652.995 1279.2 651.5 1279.2C650.019 1279.2 648.887 1278.57 648.104 1277.31C647.321 1276.05 646.93 1274.23 646.93 1271.85C646.93 1269.48 647.321 1267.66 648.104 1266.4C648.887 1265.14 650.019 1264.51 651.5 1264.51ZM648.419 1271.85C648.419 1273.54 648.572 1274.86 648.88 1275.82L653.533 1266.61C653.044 1265.96 652.366 1265.63 651.5 1265.63C650.536 1265.63 649.781 1266.15 649.236 1267.17C648.691 1268.18 648.419 1269.74 648.419 1271.85ZM651.5 1278.06C652.478 1278.06 653.24 1277.55 653.785 1276.54C654.33 1275.52 654.602 1273.95 654.602 1271.85C654.602 1270.06 654.428 1268.67 654.078 1267.69L649.425 1276.98C649.928 1277.7 650.62 1278.06 651.5 1278.06Z" fill="url(#paint41_linear_175_1815)" fill-opacity="0.6"/>
<path d="M690.43 1050.75C691.926 1050.75 693.057 1051.38 693.826 1052.64C694.609 1053.89 695 1055.7 695 1058.09C695 1060.47 694.609 1062.29 693.826 1063.55C693.057 1064.81 691.926 1065.44 690.43 1065.44C688.949 1065.44 687.817 1064.81 687.034 1063.55C686.252 1062.29 685.86 1060.47 685.86 1058.09C685.86 1055.72 686.252 1053.9 687.034 1052.64C687.817 1051.38 688.949 1050.75 690.43 1050.75ZM687.349 1058.09C687.349 1059.78 687.502 1061.1 687.81 1062.06L692.464 1052.85C691.974 1052.2 691.297 1051.87 690.43 1051.87C689.466 1051.87 688.711 1052.39 688.166 1053.41C687.621 1054.42 687.349 1055.98 687.349 1058.09ZM690.43 1064.3C691.408 1064.3 692.17 1063.8 692.715 1062.78C693.26 1061.76 693.533 1060.19 693.533 1058.09C693.533 1056.3 693.358 1054.91 693.009 1053.93L688.355 1063.22C688.858 1063.94 689.55 1064.3 690.43 1064.3Z" fill="url(#paint42_linear_175_1815)" fill-opacity="0.6"/>
<path d="M691.688 1087.89H694.769V1088.99H686.783V1087.89H690.346V1076.21L686.95 1078.22L686.363 1077.29L690.556 1074.71H691.688V1087.89Z" fill="url(#paint43_linear_175_1815)" fill-opacity="0.6"/>
<path d="M691.688 1111.64H694.769V1112.74H686.783V1111.64H690.346V1099.96L686.95 1101.97L686.363 1101.04L690.556 1098.46H691.688V1111.64Z" fill="url(#paint44_linear_175_1815)" fill-opacity="0.6"/>
<path d="M690.43 1122C691.926 1122 693.057 1122.63 693.826 1123.9C694.609 1125.14 695 1126.96 695 1129.34C695 1131.72 694.609 1133.55 693.826 1134.81C693.057 1136.07 691.926 1136.7 690.43 1136.7C688.949 1136.7 687.817 1136.07 687.034 1134.81C686.252 1133.55 685.86 1131.72 685.86 1129.34C685.86 1126.97 686.252 1125.16 687.034 1123.9C687.817 1122.63 688.949 1122 690.43 1122ZM687.349 1129.34C687.349 1131.03 687.502 1132.35 687.81 1133.31L692.464 1124.1C691.974 1123.45 691.297 1123.13 690.43 1123.13C689.466 1123.13 688.711 1123.64 688.166 1124.66C687.621 1125.68 687.349 1127.23 687.349 1129.34ZM690.43 1135.55C691.408 1135.55 692.17 1135.05 692.715 1134.04C693.26 1133.01 693.533 1131.45 693.533 1129.34C693.533 1127.55 693.358 1126.17 693.009 1125.18L688.355 1134.47C688.858 1135.19 689.55 1135.55 690.43 1135.55Z" fill="url(#paint45_linear_175_1815)" fill-opacity="0.6"/>
<path d="M690.43 1145.76C691.926 1145.76 693.057 1146.39 693.826 1147.65C694.609 1148.89 695 1150.71 695 1153.09C695 1155.47 694.609 1157.3 693.826 1158.56C693.057 1159.82 691.926 1160.45 690.43 1160.45C688.949 1160.45 687.817 1159.82 687.034 1158.56C686.252 1157.3 685.86 1155.47 685.86 1153.09C685.86 1150.72 686.252 1148.91 687.034 1147.65C687.817 1146.39 688.949 1145.76 690.43 1145.76ZM687.349 1153.09C687.349 1154.78 687.502 1156.1 687.81 1157.06L692.464 1147.85C691.974 1147.2 691.297 1146.88 690.43 1146.88C689.466 1146.88 688.711 1147.39 688.166 1148.42C687.621 1149.43 687.349 1150.99 687.349 1153.09ZM690.43 1159.31C691.408 1159.31 692.17 1158.8 692.715 1157.79C693.26 1156.76 693.533 1155.2 693.533 1153.09C693.533 1151.3 693.358 1149.92 693.009 1148.93L688.355 1158.22C688.858 1158.95 689.55 1159.31 690.43 1159.31Z" fill="url(#paint46_linear_175_1815)" fill-opacity="0.6"/>
<g opacity="0.6">
<path d="M1518.93 727C1520.36 727 1521.44 727.605 1522.17 728.815C1522.92 730.011 1523.29 731.753 1523.29 734.04C1523.29 736.327 1522.92 738.075 1522.17 739.285C1521.44 740.495 1520.36 741.1 1518.93 741.1C1517.52 741.1 1516.44 740.495 1515.69 739.285C1514.94 738.075 1514.57 736.327 1514.57 734.04C1514.57 731.767 1514.94 730.025 1515.69 728.815C1516.44 727.605 1517.52 727 1518.93 727ZM1515.99 734.04C1515.99 735.662 1516.14 736.932 1516.43 737.849L1520.87 729.014C1520.4 728.389 1519.76 728.077 1518.93 728.077C1518.01 728.077 1517.29 728.569 1516.77 729.553C1516.25 730.523 1515.99 732.019 1515.99 734.04ZM1518.93 740.003C1519.86 740.003 1520.59 739.518 1521.11 738.547C1521.63 737.564 1521.89 736.061 1521.89 734.04C1521.89 732.325 1521.72 730.995 1521.39 730.051L1516.95 738.966C1517.43 739.658 1518.09 740.003 1518.93 740.003Z" fill="url(#paint47_linear_175_1815)"/>
<path d="M1520.13 762.637H1523.07V763.694H1515.45V762.637H1518.85V751.428L1515.61 753.363L1515.05 752.465L1519.05 749.992H1520.13V762.637Z" fill="url(#paint48_linear_175_1815)"/>
<path d="M1518.93 772.586C1520.36 772.586 1521.44 773.191 1522.17 774.4C1522.92 775.597 1523.29 777.339 1523.29 779.626C1523.29 781.913 1522.92 783.661 1522.17 784.871C1521.44 786.081 1520.36 786.686 1518.93 786.686C1517.52 786.686 1516.44 786.081 1515.69 784.871C1514.94 783.661 1514.57 781.913 1514.57 779.626C1514.57 777.352 1514.94 775.61 1515.69 774.4C1516.44 773.191 1517.52 772.586 1518.93 772.586ZM1515.99 779.626C1515.99 781.248 1516.14 782.518 1516.43 783.435L1520.87 774.6C1520.4 773.975 1519.76 773.663 1518.93 773.663C1518.01 773.663 1517.29 774.155 1516.77 775.138C1516.25 776.109 1515.99 777.605 1515.99 779.626ZM1518.93 785.589C1519.86 785.589 1520.59 785.104 1521.11 784.133C1521.63 783.149 1521.89 781.647 1521.89 779.626C1521.89 777.911 1521.72 776.581 1521.39 775.637L1516.95 784.552C1517.43 785.243 1518.09 785.589 1518.93 785.589Z" fill="url(#paint49_linear_175_1815)"/>
<path d="M1520.13 808.222H1523.07V809.279H1515.45V808.222H1518.85V797.014L1515.61 798.948L1515.05 798.051L1519.05 795.578H1520.13V808.222Z" fill="url(#paint50_linear_175_1815)"/>
<path d="M1520.13 831.015H1523.07V832.072H1515.45V831.015H1518.85V819.807L1515.61 821.741L1515.05 820.844L1519.05 818.371H1520.13V831.015Z" fill="url(#paint51_linear_175_1815)"/>
<path d="M1518.93 840.964C1520.36 840.964 1521.44 841.569 1522.17 842.779C1522.92 843.976 1523.29 845.717 1523.29 848.004C1523.29 850.291 1522.92 852.039 1522.17 853.249C1521.44 854.459 1520.36 855.064 1518.93 855.064C1517.52 855.064 1516.44 854.459 1515.69 853.249C1514.94 852.039 1514.57 850.291 1514.57 848.004C1514.57 845.731 1514.94 843.989 1515.69 842.779C1516.44 841.569 1517.52 840.964 1518.93 840.964ZM1515.99 848.004C1515.99 849.626 1516.14 850.896 1516.43 851.813L1520.87 842.978C1520.4 842.353 1519.76 842.041 1518.93 842.041C1518.01 842.041 1517.29 842.533 1516.77 843.517C1516.25 844.487 1515.99 845.983 1515.99 848.004ZM1518.93 853.967C1519.86 853.967 1520.59 853.482 1521.11 852.511C1521.63 851.528 1521.89 850.025 1521.89 848.004C1521.89 846.289 1521.72 844.959 1521.39 844.015L1516.95 852.93C1517.43 853.622 1518.09 853.967 1518.93 853.967Z" fill="url(#paint52_linear_175_1815)"/>
<path d="M1520.13 876.601H1523.07V877.658H1515.45V876.601H1518.85V865.392L1515.61 867.327L1515.05 866.429L1519.05 863.956H1520.13V876.601Z" fill="url(#paint53_linear_175_1815)"/>
<path d="M1518.93 886.55C1520.36 886.55 1521.44 887.155 1522.17 888.365C1522.92 889.561 1523.29 891.303 1523.29 893.59C1523.29 895.877 1522.92 897.625 1522.17 898.835C1521.44 900.045 1520.36 900.65 1518.93 900.65C1517.52 900.65 1516.44 900.045 1515.69 898.835C1514.94 897.625 1514.57 895.877 1514.57 893.59C1514.57 891.316 1514.94 889.574 1515.69 888.365C1516.44 887.155 1517.52 886.55 1518.93 886.55ZM1515.99 893.59C1515.99 895.212 1516.14 896.482 1516.43 897.399L1520.87 888.564C1520.4 887.939 1519.76 887.627 1518.93 887.627C1518.01 887.627 1517.29 888.119 1516.77 889.102C1516.25 890.073 1515.99 891.569 1515.99 893.59ZM1518.93 899.553C1519.86 899.553 1520.59 899.068 1521.11 898.097C1521.63 897.113 1521.89 895.611 1521.89 893.59C1521.89 891.875 1521.72 890.545 1521.39 889.601L1516.95 898.516C1517.43 899.207 1518.09 899.553 1518.93 899.553Z" fill="url(#paint54_linear_175_1815)"/>
<path d="M1518.93 909.342C1520.36 909.342 1521.44 909.947 1522.17 911.157C1522.92 912.354 1523.29 914.096 1523.29 916.383C1523.29 918.669 1522.92 920.418 1522.17 921.628C1521.44 922.838 1520.36 923.443 1518.93 923.443C1517.52 923.443 1516.44 922.838 1515.69 921.628C1514.94 920.418 1514.57 918.669 1514.57 916.383C1514.57 914.109 1514.94 912.367 1515.69 911.157C1516.44 909.947 1517.52 909.342 1518.93 909.342ZM1515.99 916.383C1515.99 918.005 1516.14 919.274 1516.43 920.192L1520.87 911.357C1520.4 910.732 1519.76 910.419 1518.93 910.419C1518.01 910.419 1517.29 910.911 1516.77 911.895C1516.25 912.866 1515.99 914.362 1515.99 916.383ZM1518.93 922.346C1519.86 922.346 1520.59 921.86 1521.11 920.89C1521.63 919.906 1521.89 918.404 1521.89 916.383C1521.89 914.667 1521.72 913.338 1521.39 912.394L1516.95 921.309C1517.43 922 1518.09 922.346 1518.93 922.346Z" fill="url(#paint55_linear_175_1815)"/>
<path d="M1520.13 944.979H1523.07V946.036H1515.45V944.979H1518.85V933.771L1515.61 935.705L1515.05 934.808L1519.05 932.335H1520.13V944.979Z" fill="url(#paint56_linear_175_1815)"/>
<path d="M1518.93 954.928C1520.36 954.928 1521.44 955.533 1522.17 956.743C1522.92 957.94 1523.29 959.681 1523.29 961.968C1523.29 964.255 1522.92 966.003 1522.17 967.213C1521.44 968.423 1520.36 969.028 1518.93 969.028C1517.52 969.028 1516.44 968.423 1515.69 967.213C1514.94 966.003 1514.57 964.255 1514.57 961.968C1514.57 959.695 1514.94 957.953 1515.69 956.743C1516.44 955.533 1517.52 954.928 1518.93 954.928ZM1515.99 961.968C1515.99 963.59 1516.14 964.86 1516.43 965.777L1520.87 956.942C1520.4 956.317 1519.76 956.005 1518.93 956.005C1518.01 956.005 1517.29 956.497 1516.77 957.481C1516.25 958.451 1515.99 959.947 1515.99 961.968ZM1518.93 967.931C1519.86 967.931 1520.59 967.446 1521.11 966.475C1521.63 965.492 1521.89 963.989 1521.89 961.968C1521.89 960.253 1521.72 958.923 1521.39 957.979L1516.95 966.894C1517.43 967.586 1518.09 967.931 1518.93 967.931Z" fill="url(#paint57_linear_175_1815)"/>
<path d="M1520.13 990.565H1523.07V991.622H1515.45V990.565H1518.85V979.356L1515.61 981.291L1515.05 980.393L1519.05 977.92H1520.13V990.565Z" fill="url(#paint58_linear_175_1815)"/>
<path d="M1520.13 1013.36H1523.07V1014.41H1515.45V1013.36H1518.85V1002.15L1515.61 1004.08L1515.05 1003.19L1519.05 1000.71H1520.13V1013.36Z" fill="url(#paint59_linear_175_1815)"/>
<path d="M1556.07 772.586C1557.5 772.586 1558.58 773.191 1559.31 774.4C1560.06 775.597 1560.43 777.339 1560.43 779.626C1560.43 781.913 1560.06 783.661 1559.31 784.871C1558.58 786.081 1557.5 786.686 1556.07 786.686C1554.66 786.686 1553.58 786.081 1552.83 784.871C1552.08 783.661 1551.71 781.913 1551.71 779.626C1551.71 777.352 1552.08 775.61 1552.83 774.4C1553.58 773.191 1554.66 772.586 1556.07 772.586ZM1553.13 779.626C1553.13 781.248 1553.28 782.518 1553.57 783.435L1558.01 774.6C1557.54 773.975 1556.9 773.663 1556.07 773.663C1555.15 773.663 1554.43 774.155 1553.91 775.138C1553.39 776.109 1553.13 777.605 1553.13 779.626ZM1556.07 785.589C1557 785.589 1557.73 785.104 1558.25 784.133C1558.77 783.149 1559.03 781.647 1559.03 779.626C1559.03 777.911 1558.86 776.581 1558.53 775.637L1554.09 784.552C1554.57 785.243 1555.23 785.589 1556.07 785.589Z" fill="url(#paint60_linear_175_1815)"/>
<path d="M1557.27 808.222H1560.21V809.279H1552.59V808.222H1555.99V797.014L1552.75 798.948L1552.19 798.051L1556.19 795.578H1557.27V808.222Z" fill="url(#paint61_linear_175_1815)"/>
<path d="M1556.07 818.171C1557.5 818.171 1558.58 818.776 1559.31 819.986C1560.06 821.183 1560.43 822.924 1560.43 825.211C1560.43 827.498 1560.06 829.247 1559.31 830.457C1558.58 831.666 1557.5 832.271 1556.07 832.271C1554.66 832.271 1553.58 831.666 1552.83 830.457C1552.08 829.247 1551.71 827.498 1551.71 825.211C1551.71 822.938 1552.08 821.196 1552.83 819.986C1553.58 818.776 1554.66 818.171 1556.07 818.171ZM1553.13 825.211C1553.13 826.833 1553.28 828.103 1553.57 829.021L1558.01 820.186C1557.54 819.561 1556.9 819.248 1556.07 819.248C1555.15 819.248 1554.43 819.74 1553.91 820.724C1553.39 821.695 1553.13 823.19 1553.13 825.211ZM1556.07 831.174C1557 831.174 1557.73 830.689 1558.25 829.719C1558.77 828.735 1559.03 827.232 1559.03 825.211C1559.03 823.496 1558.86 822.167 1558.53 821.223L1554.09 830.137C1554.57 830.829 1555.23 831.174 1556.07 831.174Z" fill="url(#paint62_linear_175_1815)"/>
<path d="M1556.07 840.964C1557.5 840.964 1558.58 841.569 1559.31 842.779C1560.06 843.976 1560.43 845.717 1560.43 848.004C1560.43 850.291 1560.06 852.039 1559.31 853.249C1558.58 854.459 1557.5 855.064 1556.07 855.064C1554.66 855.064 1553.58 854.459 1552.83 853.249C1552.08 852.039 1551.71 850.291 1551.71 848.004C1551.71 845.731 1552.08 843.989 1552.83 842.779C1553.58 841.569 1554.66 840.964 1556.07 840.964ZM1553.13 848.004C1553.13 849.626 1553.28 850.896 1553.57 851.813L1558.01 842.978C1557.54 842.353 1556.9 842.041 1556.07 842.041C1555.15 842.041 1554.43 842.533 1553.91 843.517C1553.39 844.487 1553.13 845.983 1553.13 848.004ZM1556.07 853.967C1557 853.967 1557.73 853.482 1558.25 852.511C1558.77 851.528 1559.03 850.025 1559.03 848.004C1559.03 846.289 1558.86 844.959 1558.53 844.015L1554.09 852.93C1554.57 853.622 1555.23 853.967 1556.07 853.967Z" fill="url(#paint63_linear_175_1815)"/>
<path d="M1557.27 876.601H1560.21V877.658H1552.59V876.601H1555.99V865.392L1552.75 867.327L1552.19 866.429L1556.19 863.956H1557.27V876.601Z" fill="url(#paint64_linear_175_1815)"/>
<path d="M1556.07 886.55C1557.5 886.55 1558.58 887.155 1559.31 888.365C1560.06 889.561 1560.43 891.303 1560.43 893.59C1560.43 895.877 1560.06 897.625 1559.31 898.835C1558.58 900.045 1557.5 900.65 1556.07 900.65C1554.66 900.65 1553.58 900.045 1552.83 898.835C1552.08 897.625 1551.71 895.877 1551.71 893.59C1551.71 891.316 1552.08 889.574 1552.83 888.365C1553.58 887.155 1554.66 886.55 1556.07 886.55ZM1553.13 893.59C1553.13 895.212 1553.28 896.482 1553.57 897.399L1558.01 888.564C1557.54 887.939 1556.9 887.627 1556.07 887.627C1555.15 887.627 1554.43 888.119 1553.91 889.102C1553.39 890.073 1553.13 891.569 1553.13 893.59ZM1556.07 899.553C1557 899.553 1557.73 899.068 1558.25 898.097C1558.77 897.113 1559.03 895.611 1559.03 893.59C1559.03 891.875 1558.86 890.545 1558.53 889.601L1554.09 898.516C1554.57 899.207 1555.23 899.553 1556.07 899.553Z" fill="url(#paint65_linear_175_1815)"/>
<path d="M1557.27 922.186H1560.21V923.243H1552.59V922.186H1555.99V910.978L1552.75 912.912L1552.19 912.015L1556.19 909.542H1557.27V922.186Z" fill="url(#paint66_linear_175_1815)"/>
<path d="M1556.07 932.135C1557.5 932.135 1558.58 932.74 1559.31 933.95C1560.06 935.147 1560.43 936.888 1560.43 939.175C1560.43 941.462 1560.06 943.211 1559.31 944.421C1558.58 945.63 1557.5 946.235 1556.07 946.235C1554.66 946.235 1553.58 945.63 1552.83 944.421C1552.08 943.211 1551.71 941.462 1551.71 939.175C1551.71 936.902 1552.08 935.16 1552.83 933.95C1553.58 932.74 1554.66 932.135 1556.07 932.135ZM1553.13 939.175C1553.13 940.797 1553.28 942.067 1553.57 942.985L1558.01 934.15C1557.54 933.525 1556.9 933.212 1556.07 933.212C1555.15 933.212 1554.43 933.704 1553.91 934.688C1553.39 935.659 1553.13 937.154 1553.13 939.175ZM1556.07 945.139C1557 945.139 1557.73 944.653 1558.25 943.683C1558.77 942.699 1559.03 941.196 1559.03 939.175C1559.03 937.46 1558.86 936.131 1558.53 935.187L1554.09 944.101C1554.57 944.793 1555.23 945.139 1556.07 945.139Z" fill="url(#paint67_linear_175_1815)"/>
<path d="M1556.07 954.928C1557.5 954.928 1558.58 955.533 1559.31 956.743C1560.06 957.94 1560.43 959.681 1560.43 961.968C1560.43 964.255 1560.06 966.003 1559.31 967.213C1558.58 968.423 1557.5 969.028 1556.07 969.028C1554.66 969.028 1553.58 968.423 1552.83 967.213C1552.08 966.003 1551.71 964.255 1551.71 961.968C1551.71 959.695 1552.08 957.953 1552.83 956.743C1553.58 955.533 1554.66 954.928 1556.07 954.928ZM1553.13 961.968C1553.13 963.59 1553.28 964.86 1553.57 965.777L1558.01 956.942C1557.54 956.317 1556.9 956.005 1556.07 956.005C1555.15 956.005 1554.43 956.497 1553.91 957.481C1553.39 958.451 1553.13 959.947 1553.13 961.968ZM1556.07 967.931C1557 967.931 1557.73 967.446 1558.25 966.475C1558.77 965.492 1559.03 963.989 1559.03 961.968C1559.03 960.253 1558.86 958.923 1558.53 957.979L1554.09 966.894C1554.57 967.586 1555.23 967.931 1556.07 967.931Z" fill="url(#paint68_linear_175_1815)"/>
<path d="M1557.27 990.565H1560.21V991.622H1552.59V990.565H1555.99V979.356L1552.75 981.291L1552.19 980.393L1556.19 977.92H1557.27V990.565Z" fill="url(#paint69_linear_175_1815)"/>
<path d="M1556.07 1000.51C1557.5 1000.51 1558.58 1001.12 1559.31 1002.33C1560.06 1003.53 1560.43 1005.27 1560.43 1007.55C1560.43 1009.84 1560.06 1011.59 1559.31 1012.8C1558.58 1014.01 1557.5 1014.61 1556.07 1014.61C1554.66 1014.61 1553.58 1014.01 1552.83 1012.8C1552.08 1011.59 1551.71 1009.84 1551.71 1007.55C1551.71 1005.28 1552.08 1003.54 1552.83 1002.33C1553.58 1001.12 1554.66 1000.51 1556.07 1000.51ZM1553.13 1007.55C1553.13 1009.18 1553.28 1010.45 1553.57 1011.36L1558.01 1002.53C1557.54 1001.9 1556.9 1001.59 1556.07 1001.59C1555.15 1001.59 1554.43 1002.08 1553.91 1003.07C1553.39 1004.04 1553.13 1005.53 1553.13 1007.55ZM1556.07 1013.52C1557 1013.52 1557.73 1013.03 1558.25 1012.06C1558.77 1011.08 1559.03 1009.57 1559.03 1007.55C1559.03 1005.84 1558.86 1004.51 1558.53 1003.57L1554.09 1012.48C1554.57 1013.17 1555.23 1013.52 1556.07 1013.52Z" fill="url(#paint70_linear_175_1815)"/>
<path d="M1557.27 1036.15H1560.21V1037.21H1552.59V1036.15H1555.99V1024.94L1552.75 1026.88L1552.19 1025.98L1556.19 1023.51H1557.27V1036.15Z" fill="url(#paint71_linear_175_1815)"/>
<path d="M1557.27 1058.94H1560.21V1060H1552.59V1058.94H1555.99V1047.73L1552.75 1049.67L1552.19 1048.77L1556.19 1046.3H1557.27V1058.94Z" fill="url(#paint72_linear_175_1815)"/>
<path d="M1500.36 795.378C1501.79 795.378 1502.87 795.983 1503.6 797.193C1504.35 798.39 1504.72 800.132 1504.72 802.419C1504.72 804.705 1504.35 806.454 1503.6 807.664C1502.87 808.874 1501.79 809.479 1500.36 809.479C1498.95 809.479 1497.87 808.874 1497.12 807.664C1496.37 806.454 1496 804.705 1496 802.419C1496 800.145 1496.37 798.403 1497.12 797.193C1497.87 795.983 1498.95 795.378 1500.36 795.378ZM1497.42 802.419C1497.42 804.041 1497.57 805.31 1497.86 806.228L1502.3 797.393C1501.83 796.768 1501.19 796.455 1500.36 796.455C1499.44 796.455 1498.72 796.947 1498.2 797.931C1497.68 798.902 1497.42 800.398 1497.42 802.419ZM1500.36 808.382C1501.29 808.382 1502.02 807.896 1502.54 806.926C1503.06 805.942 1503.32 804.439 1503.32 802.419C1503.32 800.703 1503.15 799.374 1502.82 798.43L1498.38 807.345C1498.86 808.036 1499.52 808.382 1500.36 808.382Z" fill="url(#paint73_linear_175_1815)"/>
<path d="M1500.36 818.171C1501.79 818.171 1502.87 818.776 1503.6 819.986C1504.35 821.183 1504.72 822.924 1504.72 825.211C1504.72 827.498 1504.35 829.247 1503.6 830.457C1502.87 831.666 1501.79 832.271 1500.36 832.271C1498.95 832.271 1497.87 831.666 1497.12 830.457C1496.37 829.247 1496 827.498 1496 825.211C1496 822.938 1496.37 821.196 1497.12 819.986C1497.87 818.776 1498.95 818.171 1500.36 818.171ZM1497.42 825.211C1497.42 826.833 1497.57 828.103 1497.86 829.021L1502.3 820.186C1501.83 819.561 1501.19 819.248 1500.36 819.248C1499.44 819.248 1498.72 819.74 1498.2 820.724C1497.68 821.695 1497.42 823.19 1497.42 825.211ZM1500.36 831.174C1501.29 831.174 1502.02 830.689 1502.54 829.719C1503.06 828.735 1503.32 827.232 1503.32 825.211C1503.32 823.496 1503.15 822.167 1502.82 821.223L1498.38 830.137C1498.86 830.829 1499.52 831.174 1500.36 831.174Z" fill="url(#paint74_linear_175_1815)"/>
<path d="M1501.56 853.808H1504.5V854.865H1496.88V853.808H1500.28V842.599L1497.04 844.534L1496.48 843.636L1500.48 841.163H1501.56V853.808Z" fill="url(#paint75_linear_175_1815)"/>
<path d="M1500.36 863.757C1501.79 863.757 1502.87 864.362 1503.6 865.572C1504.35 866.768 1504.72 868.51 1504.72 870.797C1504.72 873.084 1504.35 874.832 1503.6 876.042C1502.87 877.252 1501.79 877.857 1500.36 877.857C1498.95 877.857 1497.87 877.252 1497.12 876.042C1496.37 874.832 1496 873.084 1496 870.797C1496 868.523 1496.37 866.782 1497.12 865.572C1497.87 864.362 1498.95 863.757 1500.36 863.757ZM1497.42 870.797C1497.42 872.419 1497.57 873.689 1497.86 874.606L1502.3 865.771C1501.83 865.146 1501.19 864.834 1500.36 864.834C1499.44 864.834 1498.72 865.326 1498.2 866.31C1497.68 867.28 1497.42 868.776 1497.42 870.797ZM1500.36 876.76C1501.29 876.76 1502.02 876.275 1502.54 875.304C1503.06 874.32 1503.32 872.818 1503.32 870.797C1503.32 869.082 1503.15 867.752 1502.82 866.808L1498.38 875.723C1498.86 876.414 1499.52 876.76 1500.36 876.76Z" fill="url(#paint76_linear_175_1815)"/>
<path d="M1501.56 899.393H1504.5V900.45H1496.88V899.393H1500.28V888.185L1497.04 890.12L1496.48 889.222L1500.48 886.749H1501.56V899.393Z" fill="url(#paint77_linear_175_1815)"/>
<path d="M1501.56 922.186H1504.5V923.243H1496.88V922.186H1500.28V910.978L1497.04 912.912L1496.48 912.015L1500.48 909.542H1501.56V922.186Z" fill="url(#paint78_linear_175_1815)"/>
<path d="M1538.7 762.637H1541.64V763.694H1534.02V762.637H1537.42V751.428L1534.18 753.363L1533.62 752.465L1537.62 749.992H1538.7V762.637Z" fill="url(#paint79_linear_175_1815)"/>
<path d="M1537.5 772.586C1538.93 772.586 1540.01 773.191 1540.74 774.4C1541.49 775.597 1541.86 777.339 1541.86 779.626C1541.86 781.913 1541.49 783.661 1540.74 784.871C1540.01 786.081 1538.93 786.686 1537.5 786.686C1536.09 786.686 1535.01 786.081 1534.26 784.871C1533.51 783.661 1533.14 781.913 1533.14 779.626C1533.14 777.352 1533.51 775.61 1534.26 774.4C1535.01 773.191 1536.09 772.586 1537.5 772.586ZM1534.56 779.626C1534.56 781.248 1534.71 782.518 1535 783.435L1539.44 774.6C1538.97 773.975 1538.33 773.663 1537.5 773.663C1536.58 773.663 1535.86 774.155 1535.34 775.138C1534.82 776.109 1534.56 777.605 1534.56 779.626ZM1537.5 785.589C1538.43 785.589 1539.16 785.104 1539.68 784.133C1540.2 783.149 1540.46 781.647 1540.46 779.626C1540.46 777.911 1540.29 776.581 1539.96 775.637L1535.52 784.552C1536 785.243 1536.66 785.589 1537.5 785.589Z" fill="url(#paint80_linear_175_1815)"/>
<path d="M1538.7 808.222H1541.64V809.279H1534.02V808.222H1537.42V797.014L1534.18 798.948L1533.62 798.051L1537.62 795.578H1538.7V808.222Z" fill="url(#paint81_linear_175_1815)"/>
<path d="M1538.7 831.015H1541.64V832.072H1534.02V831.015H1537.42V819.807L1534.18 821.741L1533.62 820.844L1537.62 818.371H1538.7V831.015Z" fill="url(#paint82_linear_175_1815)"/>
<path d="M1537.5 840.964C1538.93 840.964 1540.01 841.569 1540.74 842.779C1541.49 843.976 1541.86 845.717 1541.86 848.004C1541.86 850.291 1541.49 852.039 1540.74 853.249C1540.01 854.459 1538.93 855.064 1537.5 855.064C1536.09 855.064 1535.01 854.459 1534.26 853.249C1533.51 852.039 1533.14 850.291 1533.14 848.004C1533.14 845.731 1533.51 843.989 1534.26 842.779C1535.01 841.569 1536.09 840.964 1537.5 840.964ZM1534.56 848.004C1534.56 849.626 1534.71 850.896 1535 851.813L1539.44 842.978C1538.97 842.353 1538.33 842.041 1537.5 842.041C1536.58 842.041 1535.86 842.533 1535.34 843.517C1534.82 844.487 1534.56 845.983 1534.56 848.004ZM1537.5 853.967C1538.43 853.967 1539.16 853.482 1539.68 852.511C1540.2 851.528 1540.46 850.025 1540.46 848.004C1540.46 846.289 1540.29 844.959 1539.96 844.015L1535.52 852.93C1536 853.622 1536.66 853.967 1537.5 853.967Z" fill="url(#paint83_linear_175_1815)"/>
<path d="M1538.7 876.601H1541.64V877.658H1534.02V876.601H1537.42V865.392L1534.18 867.327L1533.62 866.429L1537.62 863.956H1538.7V876.601Z" fill="url(#paint84_linear_175_1815)"/>
<path d="M1538.7 899.393H1541.64V900.45H1534.02V899.393H1537.42V888.185L1534.18 890.12L1533.62 889.222L1537.62 886.749H1538.7V899.393Z" fill="url(#paint85_linear_175_1815)"/>
<path d="M1537.5 909.342C1538.93 909.342 1540.01 909.947 1540.74 911.157C1541.49 912.354 1541.86 914.096 1541.86 916.383C1541.86 918.669 1541.49 920.418 1540.74 921.628C1540.01 922.838 1538.93 923.443 1537.5 923.443C1536.09 923.443 1535.01 922.838 1534.26 921.628C1533.51 920.418 1533.14 918.669 1533.14 916.383C1533.14 914.109 1533.51 912.367 1534.26 911.157C1535.01 909.947 1536.09 909.342 1537.5 909.342ZM1534.56 916.383C1534.56 918.005 1534.71 919.274 1535 920.192L1539.44 911.357C1538.97 910.732 1538.33 910.419 1537.5 910.419C1536.58 910.419 1535.86 910.911 1535.34 911.895C1534.82 912.866 1534.56 914.362 1534.56 916.383ZM1537.5 922.346C1538.43 922.346 1539.16 921.86 1539.68 920.89C1540.2 919.906 1540.46 918.404 1540.46 916.383C1540.46 914.667 1540.29 913.338 1539.96 912.394L1535.52 921.309C1536 922 1536.66 922.346 1537.5 922.346Z" fill="url(#paint86_linear_175_1815)"/>
<path d="M1538.7 944.979H1541.64V946.036H1534.02V944.979H1537.42V933.771L1534.18 935.705L1533.62 934.808L1537.62 932.335H1538.7V944.979Z" fill="url(#paint87_linear_175_1815)"/>
<path d="M1537.5 954.928C1538.93 954.928 1540.01 955.533 1540.74 956.743C1541.49 957.94 1541.86 959.681 1541.86 961.968C1541.86 964.255 1541.49 966.003 1540.74 967.213C1540.01 968.423 1538.93 969.028 1537.5 969.028C1536.09 969.028 1535.01 968.423 1534.26 967.213C1533.51 966.003 1533.14 964.255 1533.14 961.968C1533.14 959.695 1533.51 957.953 1534.26 956.743C1535.01 955.533 1536.09 954.928 1537.5 954.928ZM1534.56 961.968C1534.56 963.59 1534.71 964.86 1535 965.777L1539.44 956.942C1538.97 956.317 1538.33 956.005 1537.5 956.005C1536.58 956.005 1535.86 956.497 1535.34 957.481C1534.82 958.451 1534.56 959.947 1534.56 961.968ZM1537.5 967.931C1538.43 967.931 1539.16 967.446 1539.68 966.475C1540.2 965.492 1540.46 963.989 1540.46 961.968C1540.46 960.253 1540.29 958.923 1539.96 957.979L1535.52 966.894C1536 967.586 1536.66 967.931 1537.5 967.931Z" fill="url(#paint88_linear_175_1815)"/>
<path d="M1574.64 749.793C1576.07 749.793 1577.15 750.398 1577.88 751.608C1578.63 752.804 1579 754.546 1579 756.833C1579 759.12 1578.63 760.868 1577.88 762.078C1577.15 763.288 1576.07 763.893 1574.64 763.893C1573.23 763.893 1572.15 763.288 1571.4 762.078C1570.65 760.868 1570.28 759.12 1570.28 756.833C1570.28 754.559 1570.65 752.818 1571.4 751.608C1572.15 750.398 1573.23 749.793 1574.64 749.793ZM1571.7 756.833C1571.7 758.455 1571.85 759.725 1572.14 760.642L1576.58 751.807C1576.11 751.182 1575.47 750.87 1574.64 750.87C1573.72 750.87 1573 751.362 1572.48 752.346C1571.96 753.316 1571.7 754.812 1571.7 756.833ZM1574.64 762.796C1575.57 762.796 1576.3 762.311 1576.82 761.34C1577.34 760.356 1577.6 758.854 1577.6 756.833C1577.6 755.118 1577.43 753.788 1577.1 752.844L1572.66 761.759C1573.14 762.45 1573.8 762.796 1574.64 762.796Z" fill="url(#paint89_linear_175_1815)"/>
<path d="M1575.84 785.429H1578.78V786.486H1571.16V785.429H1574.56V774.221L1571.32 776.156L1570.76 775.258L1574.76 772.785H1575.84V785.429Z" fill="url(#paint90_linear_175_1815)"/>
<path d="M1575.84 808.222H1578.78V809.279H1571.16V808.222H1574.56V797.014L1571.32 798.948L1570.76 798.051L1574.76 795.578H1575.84V808.222Z" fill="url(#paint91_linear_175_1815)"/>
<path d="M1574.64 818.171C1576.07 818.171 1577.15 818.776 1577.88 819.986C1578.63 821.183 1579 822.924 1579 825.211C1579 827.498 1578.63 829.247 1577.88 830.457C1577.15 831.666 1576.07 832.271 1574.64 832.271C1573.23 832.271 1572.15 831.666 1571.4 830.457C1570.65 829.247 1570.28 827.498 1570.28 825.211C1570.28 822.938 1570.65 821.196 1571.4 819.986C1572.15 818.776 1573.23 818.171 1574.64 818.171ZM1571.7 825.211C1571.7 826.833 1571.85 828.103 1572.14 829.021L1576.58 820.186C1576.11 819.561 1575.47 819.248 1574.64 819.248C1573.72 819.248 1573 819.74 1572.48 820.724C1571.96 821.695 1571.7 823.19 1571.7 825.211ZM1574.64 831.174C1575.57 831.174 1576.3 830.689 1576.82 829.719C1577.34 828.735 1577.6 827.232 1577.6 825.211C1577.6 823.496 1577.43 822.167 1577.1 821.223L1572.66 830.137C1573.14 830.829 1573.8 831.174 1574.64 831.174Z" fill="url(#paint92_linear_175_1815)"/>
<path d="M1574.64 840.964C1576.07 840.964 1577.15 841.569 1577.88 842.779C1578.63 843.976 1579 845.717 1579 848.004C1579 850.291 1578.63 852.039 1577.88 853.249C1577.15 854.459 1576.07 855.064 1574.64 855.064C1573.23 855.064 1572.15 854.459 1571.4 853.249C1570.65 852.039 1570.28 850.291 1570.28 848.004C1570.28 845.731 1570.65 843.989 1571.4 842.779C1572.15 841.569 1573.23 840.964 1574.64 840.964ZM1571.7 848.004C1571.7 849.626 1571.85 850.896 1572.14 851.813L1576.58 842.978C1576.11 842.353 1575.47 842.041 1574.64 842.041C1573.72 842.041 1573 842.533 1572.48 843.517C1571.96 844.487 1571.7 845.983 1571.7 848.004ZM1574.64 853.967C1575.57 853.967 1576.3 853.482 1576.82 852.511C1577.34 851.528 1577.6 850.025 1577.6 848.004C1577.6 846.289 1577.43 844.959 1577.1 844.015L1572.66 852.93C1573.14 853.622 1573.8 853.967 1574.64 853.967Z" fill="url(#paint93_linear_175_1815)"/>
</g>
<rect x="599" y="725" width="85.0938" height="26" rx="2" fill="#121214"/>
<rect x="599.5" y="725.5" width="84.0938" height="25" rx="1.5" stroke="black" stroke-opacity="0.14902"/>
<path d="M606.109 741.125C605.609 741.125 605.168 740.999 604.785 740.746C604.402 740.491 604.103 740.132 603.887 739.668C603.671 739.202 603.563 738.651 603.563 738.016C603.563 737.385 603.671 736.839 603.887 736.375C604.103 735.911 604.404 735.553 604.789 735.301C605.174 735.048 605.62 734.922 606.125 734.922C606.516 734.922 606.824 734.987 607.051 735.117C607.28 735.245 607.454 735.391 607.574 735.555C607.697 735.716 607.792 735.849 607.859 735.953H607.938V733H608.859V741H607.969V740.078H607.859C607.792 740.187 607.695 740.326 607.57 740.492C607.445 740.656 607.267 740.803 607.035 740.934C606.803 741.061 606.495 741.125 606.109 741.125ZM606.234 740.297C606.604 740.297 606.917 740.201 607.172 740.008C607.427 739.812 607.621 739.543 607.754 739.199C607.887 738.853 607.953 738.453 607.953 738C607.953 737.552 607.888 737.16 607.758 736.824C607.628 736.486 607.435 736.223 607.18 736.035C606.924 735.845 606.609 735.75 606.234 735.75C605.844 735.75 605.518 735.85 605.258 736.051C605 736.249 604.806 736.518 604.676 736.859C604.548 737.198 604.484 737.578 604.484 738C604.484 738.427 604.549 738.815 604.68 739.164C604.813 739.51 605.008 739.786 605.266 739.992C605.526 740.195 605.849 740.297 606.234 740.297ZM613.191 741.125C612.613 741.125 612.115 740.997 611.695 740.742C611.279 740.484 610.957 740.125 610.73 739.664C610.507 739.201 610.395 738.661 610.395 738.047C610.395 737.432 610.507 736.891 610.73 736.422C610.957 735.951 611.272 735.583 611.676 735.32C612.082 735.055 612.556 734.922 613.098 734.922C613.41 734.922 613.719 734.974 614.023 735.078C614.328 735.182 614.605 735.352 614.855 735.586C615.105 735.818 615.305 736.125 615.453 736.508C615.602 736.891 615.676 737.362 615.676 737.922V738.312H611.051V737.516H614.738C614.738 737.177 614.671 736.875 614.535 736.609C614.402 736.344 614.212 736.134 613.965 735.98C613.72 735.827 613.431 735.75 613.098 735.75C612.73 735.75 612.413 735.841 612.145 736.023C611.879 736.203 611.674 736.437 611.531 736.727C611.388 737.016 611.316 737.326 611.316 737.656V738.188C611.316 738.641 611.395 739.025 611.551 739.34C611.71 739.652 611.93 739.891 612.211 740.055C612.492 740.216 612.819 740.297 613.191 740.297C613.434 740.297 613.652 740.263 613.848 740.195C614.046 740.125 614.216 740.021 614.359 739.883C614.503 739.742 614.613 739.568 614.691 739.359L615.582 739.609C615.488 739.911 615.331 740.177 615.109 740.406C614.888 740.633 614.615 740.81 614.289 740.937C613.964 741.063 613.598 741.125 613.191 741.125ZM621.328 736.344L620.5 736.578C620.448 736.44 620.371 736.306 620.27 736.176C620.171 736.043 620.035 735.934 619.863 735.848C619.691 735.762 619.471 735.719 619.203 735.719C618.836 735.719 618.53 735.803 618.285 735.973C618.043 736.139 617.922 736.352 617.922 736.609C617.922 736.839 618.005 737.02 618.172 737.152C618.339 737.285 618.599 737.396 618.953 737.484L619.844 737.703C620.38 737.833 620.78 738.033 621.043 738.301C621.306 738.566 621.438 738.909 621.438 739.328C621.438 739.672 621.339 739.979 621.141 740.25C620.945 740.521 620.672 740.734 620.32 740.891C619.969 741.047 619.56 741.125 619.094 741.125C618.482 741.125 617.975 740.992 617.574 740.727C617.173 740.461 616.919 740.073 616.813 739.562L617.688 739.344C617.771 739.667 617.928 739.909 618.16 740.07C618.395 740.232 618.701 740.312 619.078 740.312C619.508 740.312 619.849 740.221 620.102 740.039C620.357 739.854 620.484 739.633 620.484 739.375C620.484 739.167 620.411 738.992 620.266 738.852C620.12 738.708 619.896 738.602 619.594 738.531L618.594 738.297C618.044 738.167 617.641 737.965 617.383 737.691C617.128 737.415 617 737.07 617 736.656C617 736.318 617.095 736.018 617.285 735.758C617.478 735.497 617.74 735.293 618.07 735.145C618.404 734.996 618.781 734.922 619.203 734.922C619.797 734.922 620.263 735.052 620.602 735.312C620.943 735.573 621.185 735.917 621.328 736.344ZM623.685 738.812L623.669 737.672H623.856L626.481 735H627.622L624.825 737.828H624.747L623.685 738.812ZM622.825 741V733H623.747V741H622.825ZM626.638 741L624.294 738.031L624.95 737.391L627.81 741H626.638ZM631.418 735V735.781H628.309V735H631.418ZM629.215 733.562H630.137V739.281C630.137 739.542 630.174 739.737 630.25 739.867C630.328 739.995 630.427 740.081 630.547 740.125C630.669 740.167 630.798 740.187 630.934 740.187C631.035 740.187 631.118 740.182 631.184 740.172C631.249 740.159 631.301 740.148 631.34 740.141L631.527 740.969C631.465 740.992 631.378 741.016 631.266 741.039C631.154 741.065 631.012 741.078 630.84 741.078C630.579 741.078 630.324 741.022 630.074 740.91C629.827 740.798 629.621 740.628 629.457 740.398C629.296 740.169 629.215 739.88 629.215 739.531V733.562ZM635.178 741.125C634.636 741.125 634.161 740.996 633.752 740.738C633.346 740.48 633.028 740.12 632.799 739.656C632.572 739.193 632.459 738.651 632.459 738.031C632.459 737.406 632.572 736.861 632.799 736.395C633.028 735.928 633.346 735.566 633.752 735.309C634.161 735.051 634.636 734.922 635.178 734.922C635.719 734.922 636.193 735.051 636.6 735.309C637.008 735.566 637.326 735.928 637.553 736.395C637.782 736.861 637.896 737.406 637.896 738.031C637.896 738.651 637.782 739.193 637.553 739.656C637.326 740.12 637.008 740.48 636.6 740.738C636.193 740.996 635.719 741.125 635.178 741.125ZM635.178 740.297C635.589 740.297 635.928 740.191 636.193 739.98C636.459 739.77 636.656 739.492 636.783 739.148C636.911 738.805 636.975 738.432 636.975 738.031C636.975 737.63 636.911 737.257 636.783 736.91C636.656 736.564 636.459 736.284 636.193 736.07C635.928 735.857 635.589 735.75 635.178 735.75C634.766 735.75 634.428 735.857 634.162 736.07C633.896 736.284 633.7 736.564 633.572 736.91C633.445 737.257 633.381 737.63 633.381 738.031C633.381 738.432 633.445 738.805 633.572 739.148C633.7 739.492 633.896 739.77 634.162 739.98C634.428 740.191 634.766 740.297 635.178 740.297ZM639.304 743.25V735H640.194V735.953H640.304C640.371 735.849 640.465 735.716 640.585 735.555C640.707 735.391 640.882 735.245 641.108 735.117C641.338 734.987 641.647 734.922 642.038 734.922C642.543 734.922 642.989 735.048 643.374 735.301C643.759 735.553 644.06 735.911 644.276 736.375C644.493 736.839 644.601 737.385 644.601 738.016C644.601 738.651 644.493 739.202 644.276 739.668C644.06 740.132 643.761 740.491 643.378 740.746C642.995 740.999 642.554 741.125 642.054 741.125C641.668 741.125 641.36 741.061 641.128 740.934C640.896 740.803 640.718 740.656 640.593 740.492C640.468 740.326 640.371 740.187 640.304 740.078H640.226V743.25H639.304ZM640.21 738C640.21 738.453 640.276 738.853 640.409 739.199C640.542 739.543 640.736 739.812 640.991 740.008C641.246 740.201 641.559 740.297 641.929 740.297C642.314 740.297 642.636 740.195 642.894 739.992C643.154 739.786 643.349 739.51 643.479 739.164C643.612 738.815 643.679 738.427 643.679 738C643.679 737.578 643.614 737.198 643.483 736.859C643.356 736.518 643.162 736.249 642.901 736.051C642.644 735.85 642.319 735.75 641.929 735.75C641.554 735.75 641.239 735.845 640.983 736.035C640.728 736.223 640.535 736.486 640.405 736.824C640.275 737.16 640.21 737.552 640.21 738ZM649.444 737.141V738H645.944V737.141H649.444ZM653.488 743.375C653.043 743.375 652.66 743.318 652.34 743.203C652.02 743.091 651.753 742.943 651.539 742.758C651.328 742.576 651.16 742.38 651.035 742.172L651.77 741.656C651.853 741.766 651.958 741.891 652.086 742.031C652.214 742.174 652.388 742.298 652.609 742.402C652.833 742.509 653.126 742.562 653.488 742.562C653.973 742.562 654.372 742.445 654.688 742.211C655.003 741.977 655.16 741.609 655.16 741.109V739.891H655.082C655.014 740 654.918 740.135 654.793 740.297C654.671 740.456 654.493 740.598 654.262 740.723C654.033 740.845 653.723 740.906 653.332 740.906C652.848 740.906 652.413 740.792 652.027 740.563C651.645 740.333 651.341 740 651.117 739.562C650.896 739.125 650.785 738.594 650.785 737.969C650.785 737.354 650.893 736.819 651.109 736.363C651.326 735.905 651.626 735.551 652.012 735.301C652.397 735.048 652.842 734.922 653.348 734.922C653.738 734.922 654.048 734.987 654.277 735.117C654.509 735.245 654.686 735.391 654.809 735.555C654.934 735.716 655.03 735.849 655.098 735.953H655.191V735H656.082V741.172C656.082 741.688 655.965 742.107 655.73 742.43C655.499 742.755 655.186 742.993 654.793 743.145C654.402 743.298 653.967 743.375 653.488 743.375ZM653.457 740.078C653.827 740.078 654.139 739.993 654.395 739.824C654.65 739.655 654.844 739.411 654.977 739.094C655.109 738.776 655.176 738.396 655.176 737.953C655.176 737.521 655.111 737.139 654.98 736.809C654.85 736.478 654.658 736.219 654.402 736.031C654.147 735.844 653.832 735.75 653.457 735.75C653.066 735.75 652.741 735.849 652.48 736.047C652.223 736.245 652.029 736.51 651.898 736.844C651.771 737.177 651.707 737.547 651.707 737.953C651.707 738.37 651.772 738.738 651.902 739.059C652.035 739.376 652.23 739.626 652.488 739.809C652.749 739.988 653.072 740.078 653.457 740.078ZM657.77 741V735H658.66V735.906H658.723C658.832 735.609 659.03 735.368 659.316 735.184C659.603 734.999 659.926 734.906 660.285 734.906C660.353 734.906 660.438 734.908 660.539 734.91C660.641 734.913 660.717 734.917 660.77 734.922V735.859C660.738 735.852 660.667 735.84 660.555 735.824C660.445 735.806 660.329 735.797 660.207 735.797C659.915 735.797 659.655 735.858 659.426 735.98C659.199 736.1 659.02 736.267 658.887 736.48C658.757 736.691 658.691 736.932 658.691 737.203V741H657.77ZM664.195 741.125C663.617 741.125 663.118 740.997 662.699 740.742C662.283 740.484 661.961 740.125 661.734 739.664C661.51 739.201 661.398 738.661 661.398 738.047C661.398 737.432 661.51 736.891 661.734 736.422C661.961 735.951 662.276 735.583 662.68 735.32C663.086 735.055 663.56 734.922 664.102 734.922C664.414 734.922 664.723 734.974 665.027 735.078C665.332 735.182 665.609 735.352 665.859 735.586C666.109 735.818 666.309 736.125 666.457 736.508C666.605 736.891 666.68 737.362 666.68 737.922V738.312H662.055V737.516H665.742C665.742 737.177 665.674 736.875 665.539 736.609C665.406 736.344 665.216 736.134 664.969 735.98C664.724 735.827 664.435 735.75 664.102 735.75C663.734 735.75 663.417 735.841 663.148 736.023C662.883 736.203 662.678 736.437 662.535 736.727C662.392 737.016 662.32 737.326 662.32 737.656V738.188C662.32 738.641 662.398 739.025 662.555 739.34C662.714 739.652 662.934 739.891 663.215 740.055C663.496 740.216 663.823 740.297 664.195 740.297C664.438 740.297 664.656 740.263 664.852 740.195C665.049 740.125 665.22 740.021 665.363 739.883C665.507 739.742 665.617 739.568 665.695 739.359L666.586 739.609C666.492 739.911 666.335 740.177 666.113 740.406C665.892 740.633 665.618 740.81 665.293 740.937C664.967 741.063 664.602 741.125 664.195 741.125ZM670.598 741.125C670.02 741.125 669.521 740.997 669.102 740.742C668.685 740.484 668.363 740.125 668.137 739.664C667.913 739.201 667.801 738.661 667.801 738.047C667.801 737.432 667.913 736.891 668.137 736.422C668.363 735.951 668.678 735.583 669.082 735.32C669.488 735.055 669.962 734.922 670.504 734.922C670.816 734.922 671.125 734.974 671.43 735.078C671.734 735.182 672.012 735.352 672.262 735.586C672.512 735.818 672.711 736.125 672.859 736.508C673.008 736.891 673.082 737.362 673.082 737.922V738.312H668.457V737.516H672.145C672.145 737.177 672.077 736.875 671.941 736.609C671.809 736.344 671.618 736.134 671.371 735.98C671.126 735.827 670.837 735.75 670.504 735.75C670.137 735.75 669.819 735.841 669.551 736.023C669.285 736.203 669.081 736.437 668.938 736.727C668.794 737.016 668.723 737.326 668.723 737.656V738.188C668.723 738.641 668.801 739.025 668.957 739.34C669.116 739.652 669.336 739.891 669.617 740.055C669.898 740.216 670.225 740.297 670.598 740.297C670.84 740.297 671.059 740.263 671.254 740.195C671.452 740.125 671.622 740.021 671.766 739.883C671.909 739.742 672.02 739.568 672.098 739.359L672.988 739.609C672.895 739.911 672.737 740.177 672.516 740.406C672.294 740.633 672.021 740.81 671.695 740.937C671.37 741.063 671.004 741.125 670.598 741.125ZM675.406 737.391V741H674.484V735H675.375V735.937H675.453C675.594 735.633 675.807 735.388 676.094 735.203C676.38 735.016 676.75 734.922 677.203 734.922C677.609 734.922 677.965 735.005 678.27 735.172C678.574 735.336 678.811 735.586 678.98 735.922C679.15 736.255 679.234 736.677 679.234 737.188V741H678.313V737.25C678.313 736.779 678.19 736.411 677.945 736.148C677.701 735.883 677.365 735.75 676.937 735.75C676.643 735.75 676.38 735.814 676.148 735.941C675.919 736.069 675.738 736.255 675.605 736.5C675.473 736.745 675.406 737.042 675.406 737.391Z" fill="white"/>
<defs>
<filter id="filter0_f_175_1815" x="40.81" y="40.81" width="2141.38" height="1500.38" filterUnits="userSpaceOnUse" color-interpolation-filters="sRGB">
<feFlood flood-opacity="0" result="BackgroundImageFix"/>
<feBlend mode="normal" in="SourceGraphic" in2="BackgroundImageFix" result="shape"/>
<feGaussianBlur stdDeviation="200.095" result="effect1_foregroundBlur_175_1815"/>
</filter>
<linearGradient id="paint0_linear_175_1815" x1="651.5" y1="1027" x2="651.5" y2="1338.38" gradientUnits="userSpaceOnUse">
<stop stop-color="#F7DD43"/>
<stop offset="1" stop-color="#F7DD43" stop-opacity="0"/>
</linearGradient>
<linearGradient id="paint1_linear_175_1815" x1="651.5" y1="1027" x2="651.5" y2="1338.38" gradientUnits="userSpaceOnUse">
<stop stop-color="#F7DD43"/>
<stop offset="1" stop-color="#F7DD43" stop-opacity="0"/>
</linearGradient>
<linearGradient id="paint2_linear_175_1815" x1="651.5" y1="1027" x2="651.5" y2="1338.38" gradientUnits="userSpaceOnUse">
<stop stop-color="#F7DD43"/>
<stop offset="1" stop-color="#F7DD43" stop-opacity="0"/>
</linearGradient>
<linearGradient id="paint3_linear_175_1815" x1="651.5" y1="1027" x2="651.5" y2="1338.38" gradientUnits="userSpaceOnUse">
<stop stop-color="#F7DD43"/>
<stop offset="1" stop-color="#F7DD43" stop-opacity="0"/>
</linearGradient>
<linearGradient id="paint4_linear_175_1815" x1="651.5" y1="1027" x2="651.5" y2="1338.38" gradientUnits="userSpaceOnUse">
<stop stop-color="#F7DD43"/>
<stop offset="1" stop-color="#F7DD43" stop-opacity="0"/>
</linearGradient>
<linearGradient id="paint5_linear_175_1815" x1="651.5" y1="1027" x2="651.5" y2="1338.38" gradientUnits="userSpaceOnUse">
<stop stop-color="#F7DD43"/>
<stop offset="1" stop-color="#F7DD43" stop-opacity="0"/>
</linearGradient>
<linearGradient id="paint6_linear_175_1815" x1="651.5" y1="1027" x2="651.5" y2="1338.38" gradientUnits="userSpaceOnUse">
<stop stop-color="#F7DD43"/>
<stop offset="1" stop-color="#F7DD43" stop-opacity="0"/>
</linearGradient>
<linearGradient id="paint7_linear_175_1815" x1="651.5" y1="1027" x2="651.5" y2="1338.38" gradientUnits="userSpaceOnUse">
<stop stop-color="#F7DD43"/>
<stop offset="1" stop-color="#F7DD43" stop-opacity="0"/>
</linearGradient>
<linearGradient id="paint8_linear_175_1815" x1="651.5" y1="1027" x2="651.5" y2="1338.38" gradientUnits="userSpaceOnUse">
<stop stop-color="#F7DD43"/>
<stop offset="1" stop-color="#F7DD43" stop-opacity="0"/>
</linearGradient>
<linearGradient id="paint9_linear_175_1815" x1="651.5" y1="1027" x2="651.5" y2="1338.38" gradientUnits="userSpaceOnUse">
<stop stop-color="#F7DD43"/>
<stop offset="1" stop-color="#F7DD43" stop-opacity="0"/>
</linearGradient>
<linearGradient id="paint10_linear_175_1815" x1="651.5" y1="1027" x2="651.5" y2="1338.38" gradientUnits="userSpaceOnUse">
<stop stop-color="#F7DD43"/>
<stop offset="1" stop-color="#F7DD43" stop-opacity="0"/>
</linearGradient>
<linearGradient id="paint11_linear_175_1815" x1="651.5" y1="1027" x2="651.5" y2="1338.38" gradientUnits="userSpaceOnUse">
<stop stop-color="#F7DD43"/>
<stop offset="1" stop-color="#F7DD43" stop-opacity="0"/>
</linearGradient>
<linearGradient id="paint12_linear_175_1815" x1="651.5" y1="1027" x2="651.5" y2="1338.38" gradientUnits="userSpaceOnUse">
<stop stop-color="#F7DD43"/>
<stop offset="1" stop-color="#F7DD43" stop-opacity="0"/>
</linearGradient>
<linearGradient id="paint13_linear_175_1815" x1="651.5" y1="1027" x2="651.5" y2="1338.38" gradientUnits="userSpaceOnUse">
<stop stop-color="#F7DD43"/>
<stop offset="1" stop-color="#F7DD43" stop-opacity="0"/>
</linearGradient>
<linearGradient id="paint14_linear_175_1815" x1="651.5" y1="1027" x2="651.5" y2="1338.38" gradientUnits="userSpaceOnUse">
<stop stop-color="#F7DD43"/>
<stop offset="1" stop-color="#F7DD43" stop-opacity="0"/>
</linearGradient>
<linearGradient id="paint15_linear_175_1815" x1="651.5" y1="1027" x2="651.5" y2="1338.38" gradientUnits="userSpaceOnUse">
<stop stop-color="#F7DD43"/>
<stop offset="1" stop-color="#F7DD43" stop-opacity="0"/>
</linearGradient>
<linearGradient id="paint16_linear_175_1815" x1="651.5" y1="1027" x2="651.5" y2="1338.38" gradientUnits="userSpaceOnUse">
<stop stop-color="#F7DD43"/>
<stop offset="1" stop-color="#F7DD43" stop-opacity="0"/>
</linearGradient>
<linearGradient id="paint17_linear_175_1815" x1="651.5" y1="1027" x2="651.5" y2="1338.38" gradientUnits="userSpaceOnUse">
<stop stop-color="#F7DD43"/>
<stop offset="1" stop-color="#F7DD43" stop-opacity="0"/>
</linearGradient>
<linearGradient id="paint18_linear_175_1815" x1="651.5" y1="1027" x2="651.5" y2="1338.38" gradientUnits="userSpaceOnUse">
<stop stop-color="#F7DD43"/>
<stop offset="1" stop-color="#F7DD43" stop-opacity="0"/>
</linearGradient>
<linearGradient id="paint19_linear_175_1815" x1="651.5" y1="1027" x2="651.5" y2="1338.38" gradientUnits="userSpaceOnUse">
<stop stop-color="#F7DD43"/>
<stop offset="1" stop-color="#F7DD43" stop-opacity="0"/>
</linearGradient>
<linearGradient id="paint20_linear_175_1815" x1="651.5" y1="1027" x2="651.5" y2="1338.38" gradientUnits="userSpaceOnUse">
<stop stop-color="#F7DD43"/>
<stop offset="1" stop-color="#F7DD43" stop-opacity="0"/>
</linearGradient>
<linearGradient id="paint21_linear_175_1815" x1="651.5" y1="1027" x2="651.5" y2="1338.38" gradientUnits="userSpaceOnUse">
<stop stop-color="#F7DD43"/>
<stop offset="1" stop-color="#F7DD43" stop-opacity="0"/>
</linearGradient>
<linearGradient id="paint22_linear_175_1815" x1="651.5" y1="1027" x2="651.5" y2="1338.38" gradientUnits="userSpaceOnUse">
<stop stop-color="#F7DD43"/>
<stop offset="1" stop-color="#F7DD43" stop-opacity="0"/>
</linearGradient>
<linearGradient id="paint23_linear_175_1815" x1="651.5" y1="1027" x2="651.5" y2="1338.38" gradientUnits="userSpaceOnUse">
<stop stop-color="#F7DD43"/>
<stop offset="1" stop-color="#F7DD43" stop-opacity="0"/>
</linearGradient>
<linearGradient id="paint24_linear_175_1815" x1="651.5" y1="1027" x2="651.5" y2="1338.38" gradientUnits="userSpaceOnUse">
<stop stop-color="#F7DD43"/>
<stop offset="1" stop-color="#F7DD43" stop-opacity="0"/>
</linearGradient>
<linearGradient id="paint25_linear_175_1815" x1="651.5" y1="1027" x2="651.5" y2="1338.38" gradientUnits="userSpaceOnUse">
<stop stop-color="#F7DD43"/>
<stop offset="1" stop-color="#F7DD43" stop-opacity="0"/>
</linearGradient>
<linearGradient id="paint26_linear_175_1815" x1="651.5" y1="1027" x2="651.5" y2="1338.38" gradientUnits="userSpaceOnUse">
<stop stop-color="#F7DD43"/>
<stop offset="1" stop-color="#F7DD43" stop-opacity="0"/>
</linearGradient>
<linearGradient id="paint27_linear_175_1815" x1="651.5" y1="1027" x2="651.5" y2="1338.38" gradientUnits="userSpaceOnUse">
<stop stop-color="#F7DD43"/>
<stop offset="1" stop-color="#F7DD43" stop-opacity="0"/>
</linearGradient>
<linearGradient id="paint28_linear_175_1815" x1="651.5" y1="1027" x2="651.5" y2="1338.38" gradientUnits="userSpaceOnUse">
<stop stop-color="#F7DD43"/>
<stop offset="1" stop-color="#F7DD43" stop-opacity="0"/>
</linearGradient>
<linearGradient id="paint29_linear_175_1815" x1="651.5" y1="1027" x2="651.5" y2="1338.38" gradientUnits="userSpaceOnUse">
<stop stop-color="#F7DD43"/>
<stop offset="1" stop-color="#F7DD43" stop-opacity="0"/>
</linearGradient>
<linearGradient id="paint30_linear_175_1815" x1="651.5" y1="1027" x2="651.5" y2="1338.38" gradientUnits="userSpaceOnUse">
<stop stop-color="#F7DD43"/>
<stop offset="1" stop-color="#F7DD43" stop-opacity="0"/>
</linearGradient>
<linearGradient id="paint31_linear_175_1815" x1="651.5" y1="1027" x2="651.5" y2="1338.38" gradientUnits="userSpaceOnUse">
<stop stop-color="#F7DD43"/>
<stop offset="1" stop-color="#F7DD43" stop-opacity="0"/>
</linearGradient>
<linearGradient id="paint32_linear_175_1815" x1="651.5" y1="1027" x2="651.5" y2="1338.38" gradientUnits="userSpaceOnUse">
<stop stop-color="#F7DD43"/>
<stop offset="1" stop-color="#F7DD43" stop-opacity="0"/>
</linearGradient>
<linearGradient id="paint33_linear_175_1815" x1="651.5" y1="1027" x2="651.5" y2="1338.38" gradientUnits="userSpaceOnUse">
<stop stop-color="#F7DD43"/>
<stop offset="1" stop-color="#F7DD43" stop-opacity="0"/>
</linearGradient>
<linearGradient id="paint34_linear_175_1815" x1="651.5" y1="1027" x2="651.5" y2="1338.38" gradientUnits="userSpaceOnUse">
<stop stop-color="#F7DD43"/>
<stop offset="1" stop-color="#F7DD43" stop-opacity="0"/>
</linearGradient>
<linearGradient id="paint35_linear_175_1815" x1="651.5" y1="1027" x2="651.5" y2="1338.38" gradientUnits="userSpaceOnUse">
<stop stop-color="#F7DD43"/>
<stop offset="1" stop-color="#F7DD43" stop-opacity="0"/>
</linearGradient>
<linearGradient id="paint36_linear_175_1815" x1="651.5" y1="1027" x2="651.5" y2="1338.38" gradientUnits="userSpaceOnUse">
<stop stop-color="#F7DD43"/>
<stop offset="1" stop-color="#F7DD43" stop-opacity="0"/>
</linearGradient>
<linearGradient id="paint37_linear_175_1815" x1="651.5" y1="1027" x2="651.5" y2="1338.38" gradientUnits="userSpaceOnUse">
<stop stop-color="#F7DD43"/>
<stop offset="1" stop-color="#F7DD43" stop-opacity="0"/>
</linearGradient>
<linearGradient id="paint38_linear_175_1815" x1="651.5" y1="1027" x2="651.5" y2="1338.38" gradientUnits="userSpaceOnUse">
<stop stop-color="#F7DD43"/>
<stop offset="1" stop-color="#F7DD43" stop-opacity="0"/>
</linearGradient>
<linearGradient id="paint39_linear_175_1815" x1="651.5" y1="1027" x2="651.5" y2="1338.38" gradientUnits="userSpaceOnUse">
<stop stop-color="#F7DD43"/>
<stop offset="1" stop-color="#F7DD43" stop-opacity="0"/>
</linearGradient>
<linearGradient id="paint40_linear_175_1815" x1="651.5" y1="1027" x2="651.5" y2="1338.38" gradientUnits="userSpaceOnUse">
<stop stop-color="#F7DD43"/>
<stop offset="1" stop-color="#F7DD43" stop-opacity="0"/>
</linearGradient>
<linearGradient id="paint41_linear_175_1815" x1="651.5" y1="1027" x2="651.5" y2="1338.38" gradientUnits="userSpaceOnUse">
<stop stop-color="#F7DD43"/>
<stop offset="1" stop-color="#F7DD43" stop-opacity="0"/>
</linearGradient>
<linearGradient id="paint42_linear_175_1815" x1="651.5" y1="1027" x2="651.5" y2="1338.38" gradientUnits="userSpaceOnUse">
<stop stop-color="#F7DD43"/>
<stop offset="1" stop-color="#F7DD43" stop-opacity="0"/>
</linearGradient>
<linearGradient id="paint43_linear_175_1815" x1="651.5" y1="1027" x2="651.5" y2="1338.38" gradientUnits="userSpaceOnUse">
<stop stop-color="#F7DD43"/>
<stop offset="1" stop-color="#F7DD43" stop-opacity="0"/>
</linearGradient>
<linearGradient id="paint44_linear_175_1815" x1="651.5" y1="1027" x2="651.5" y2="1338.38" gradientUnits="userSpaceOnUse">
<stop stop-color="#F7DD43"/>
<stop offset="1" stop-color="#F7DD43" stop-opacity="0"/>
</linearGradient>
<linearGradient id="paint45_linear_175_1815" x1="651.5" y1="1027" x2="651.5" y2="1338.38" gradientUnits="userSpaceOnUse">
<stop stop-color="#F7DD43"/>
<stop offset="1" stop-color="#F7DD43" stop-opacity="0"/>
</linearGradient>
<linearGradient id="paint46_linear_175_1815" x1="651.5" y1="1027" x2="651.5" y2="1338.38" gradientUnits="userSpaceOnUse">
<stop stop-color="#F7DD43"/>
<stop offset="1" stop-color="#F7DD43" stop-opacity="0"/>
</linearGradient>
<linearGradient id="paint47_linear_175_1815" x1="1537.5" y1="727" x2="1537.5" y2="1025.82" gradientUnits="userSpaceOnUse">
<stop stop-color="#F7DD43"/>
<stop offset="1" stop-color="#F7DD43" stop-opacity="0"/>
</linearGradient>
<linearGradient id="paint48_linear_175_1815" x1="1537.5" y1="727" x2="1537.5" y2="1025.82" gradientUnits="userSpaceOnUse">
<stop stop-color="#F7DD43"/>
<stop offset="1" stop-color="#F7DD43" stop-opacity="0"/>
</linearGradient>
<linearGradient id="paint49_linear_175_1815" x1="1537.5" y1="727" x2="1537.5" y2="1025.82" gradientUnits="userSpaceOnUse">
<stop stop-color="#F7DD43"/>
<stop offset="1" stop-color="#F7DD43" stop-opacity="0"/>
</linearGradient>
<linearGradient id="paint50_linear_175_1815" x1="1537.5" y1="727" x2="1537.5" y2="1025.82" gradientUnits="userSpaceOnUse">
<stop stop-color="#F7DD43"/>
<stop offset="1" stop-color="#F7DD43" stop-opacity="0"/>
</linearGradient>
<linearGradient id="paint51_linear_175_1815" x1="1537.5" y1="727" x2="1537.5" y2="1025.82" gradientUnits="userSpaceOnUse">
<stop stop-color="#F7DD43"/>
<stop offset="1" stop-color="#F7DD43" stop-opacity="0"/>
</linearGradient>
<linearGradient id="paint52_linear_175_1815" x1="1537.5" y1="727" x2="1537.5" y2="1025.82" gradientUnits="userSpaceOnUse">
<stop stop-color="#F7DD43"/>
<stop offset="1" stop-color="#F7DD43" stop-opacity="0"/>
</linearGradient>
<linearGradient id="paint53_linear_175_1815" x1="1537.5" y1="727" x2="1537.5" y2="1025.82" gradientUnits="userSpaceOnUse">
<stop stop-color="#F7DD43"/>
<stop offset="1" stop-color="#F7DD43" stop-opacity="0"/>
</linearGradient>
<linearGradient id="paint54_linear_175_1815" x1="1537.5" y1="727" x2="1537.5" y2="1025.82" gradientUnits="userSpaceOnUse">
<stop stop-color="#F7DD43"/>
<stop offset="1" stop-color="#F7DD43" stop-opacity="0"/>
</linearGradient>
<linearGradient id="paint55_linear_175_1815" x1="1537.5" y1="727" x2="1537.5" y2="1025.82" gradientUnits="userSpaceOnUse">
<stop stop-color="#F7DD43"/>
<stop offset="1" stop-color="#F7DD43" stop-opacity="0"/>
</linearGradient>
<linearGradient id="paint56_linear_175_1815" x1="1537.5" y1="727" x2="1537.5" y2="1025.82" gradientUnits="userSpaceOnUse">
<stop stop-color="#F7DD43"/>
<stop offset="1" stop-color="#F7DD43" stop-opacity="0"/>
</linearGradient>
<linearGradient id="paint57_linear_175_1815" x1="1537.5" y1="727" x2="1537.5" y2="1025.82" gradientUnits="userSpaceOnUse">
<stop stop-color="#F7DD43"/>
<stop offset="1" stop-color="#F7DD43" stop-opacity="0"/>
</linearGradient>
<linearGradient id="paint58_linear_175_1815" x1="1537.5" y1="727" x2="1537.5" y2="1025.82" gradientUnits="userSpaceOnUse">
<stop stop-color="#F7DD43"/>
<stop offset="1" stop-color="#F7DD43" stop-opacity="0"/>
</linearGradient>
<linearGradient id="paint59_linear_175_1815" x1="1537.5" y1="727" x2="1537.5" y2="1025.82" gradientUnits="userSpaceOnUse">
<stop stop-color="#F7DD43"/>
<stop offset="1" stop-color="#F7DD43" stop-opacity="0"/>
</linearGradient>
<linearGradient id="paint60_linear_175_1815" x1="1537.5" y1="727" x2="1537.5" y2="1025.82" gradientUnits="userSpaceOnUse">
<stop stop-color="#F7DD43"/>
<stop offset="1" stop-color="#F7DD43" stop-opacity="0"/>
</linearGradient>
<linearGradient id="paint61_linear_175_1815" x1="1537.5" y1="727" x2="1537.5" y2="1025.82" gradientUnits="userSpaceOnUse">
<stop stop-color="#F7DD43"/>
<stop offset="1" stop-color="#F7DD43" stop-opacity="0"/>
</linearGradient>
<linearGradient id="paint62_linear_175_1815" x1="1537.5" y1="727" x2="1537.5" y2="1025.82" gradientUnits="userSpaceOnUse">
<stop stop-color="#F7DD43"/>
<stop offset="1" stop-color="#F7DD43" stop-opacity="0"/>
</linearGradient>
<linearGradient id="paint63_linear_175_1815" x1="1537.5" y1="727" x2="1537.5" y2="1025.82" gradientUnits="userSpaceOnUse">
<stop stop-color="#F7DD43"/>
<stop offset="1" stop-color="#F7DD43" stop-opacity="0"/>
</linearGradient>
<linearGradient id="paint64_linear_175_1815" x1="1537.5" y1="727" x2="1537.5" y2="1025.82" gradientUnits="userSpaceOnUse">
<stop stop-color="#F7DD43"/>
<stop offset="1" stop-color="#F7DD43" stop-opacity="0"/>
</linearGradient>
<linearGradient id="paint65_linear_175_1815" x1="1537.5" y1="727" x2="1537.5" y2="1025.82" gradientUnits="userSpaceOnUse">
<stop stop-color="#F7DD43"/>
<stop offset="1" stop-color="#F7DD43" stop-opacity="0"/>
</linearGradient>
<linearGradient id="paint66_linear_175_1815" x1="1537.5" y1="727" x2="1537.5" y2="1025.82" gradientUnits="userSpaceOnUse">
<stop stop-color="#F7DD43"/>
<stop offset="1" stop-color="#F7DD43" stop-opacity="0"/>
</linearGradient>
<linearGradient id="paint67_linear_175_1815" x1="1537.5" y1="727" x2="1537.5" y2="1025.82" gradientUnits="userSpaceOnUse">
<stop stop-color="#F7DD43"/>
<stop offset="1" stop-color="#F7DD43" stop-opacity="0"/>
</linearGradient>
<linearGradient id="paint68_linear_175_1815" x1="1537.5" y1="727" x2="1537.5" y2="1025.82" gradientUnits="userSpaceOnUse">
<stop stop-color="#F7DD43"/>
<stop offset="1" stop-color="#F7DD43" stop-opacity="0"/>
</linearGradient>
<linearGradient id="paint69_linear_175_1815" x1="1537.5" y1="727" x2="1537.5" y2="1025.82" gradientUnits="userSpaceOnUse">
<stop stop-color="#F7DD43"/>
<stop offset="1" stop-color="#F7DD43" stop-opacity="0"/>
</linearGradient>
<linearGradient id="paint70_linear_175_1815" x1="1537.5" y1="727" x2="1537.5" y2="1025.82" gradientUnits="userSpaceOnUse">
<stop stop-color="#F7DD43"/>
<stop offset="1" stop-color="#F7DD43" stop-opacity="0"/>
</linearGradient>
<linearGradient id="paint71_linear_175_1815" x1="1537.5" y1="727" x2="1537.5" y2="1025.82" gradientUnits="userSpaceOnUse">
<stop stop-color="#F7DD43"/>
<stop offset="1" stop-color="#F7DD43" stop-opacity="0"/>
</linearGradient>
<linearGradient id="paint72_linear_175_1815" x1="1537.5" y1="727" x2="1537.5" y2="1025.82" gradientUnits="userSpaceOnUse">
<stop stop-color="#F7DD43"/>
<stop offset="1" stop-color="#F7DD43" stop-opacity="0"/>
</linearGradient>
<linearGradient id="paint73_linear_175_1815" x1="1537.5" y1="727" x2="1537.5" y2="1025.82" gradientUnits="userSpaceOnUse">
<stop stop-color="#F7DD43"/>
<stop offset="1" stop-color="#F7DD43" stop-opacity="0"/>
</linearGradient>
<linearGradient id="paint74_linear_175_1815" x1="1537.5" y1="727" x2="1537.5" y2="1025.82" gradientUnits="userSpaceOnUse">
<stop stop-color="#F7DD43"/>
<stop offset="1" stop-color="#F7DD43" stop-opacity="0"/>
</linearGradient>
<linearGradient id="paint75_linear_175_1815" x1="1537.5" y1="727" x2="1537.5" y2="1025.82" gradientUnits="userSpaceOnUse">
<stop stop-color="#F7DD43"/>
<stop offset="1" stop-color="#F7DD43" stop-opacity="0"/>
</linearGradient>
<linearGradient id="paint76_linear_175_1815" x1="1537.5" y1="727" x2="1537.5" y2="1025.82" gradientUnits="userSpaceOnUse">
<stop stop-color="#F7DD43"/>
<stop offset="1" stop-color="#F7DD43" stop-opacity="0"/>
</linearGradient>
<linearGradient id="paint77_linear_175_1815" x1="1537.5" y1="727" x2="1537.5" y2="1025.82" gradientUnits="userSpaceOnUse">
<stop stop-color="#F7DD43"/>
<stop offset="1" stop-color="#F7DD43" stop-opacity="0"/>
</linearGradient>
<linearGradient id="paint78_linear_175_1815" x1="1537.5" y1="727" x2="1537.5" y2="1025.82" gradientUnits="userSpaceOnUse">
<stop stop-color="#F7DD43"/>
<stop offset="1" stop-color="#F7DD43" stop-opacity="0"/>
</linearGradient>
<linearGradient id="paint79_linear_175_1815" x1="1537.5" y1="727" x2="1537.5" y2="1025.82" gradientUnits="userSpaceOnUse">
<stop stop-color="#F7DD43"/>
<stop offset="1" stop-color="#F7DD43" stop-opacity="0"/>
</linearGradient>
<linearGradient id="paint80_linear_175_1815" x1="1537.5" y1="727" x2="1537.5" y2="1025.82" gradientUnits="userSpaceOnUse">
<stop stop-color="#F7DD43"/>
<stop offset="1" stop-color="#F7DD43" stop-opacity="0"/>
</linearGradient>
<linearGradient id="paint81_linear_175_1815" x1="1537.5" y1="727" x2="1537.5" y2="1025.82" gradientUnits="userSpaceOnUse">
<stop stop-color="#F7DD43"/>
<stop offset="1" stop-color="#F7DD43" stop-opacity="0"/>
</linearGradient>
<linearGradient id="paint82_linear_175_1815" x1="1537.5" y1="727" x2="1537.5" y2="1025.82" gradientUnits="userSpaceOnUse">
<stop stop-color="#F7DD43"/>
<stop offset="1" stop-color="#F7DD43" stop-opacity="0"/>
</linearGradient>
<linearGradient id="paint83_linear_175_1815" x1="1537.5" y1="727" x2="1537.5" y2="1025.82" gradientUnits="userSpaceOnUse">
<stop stop-color="#F7DD43"/>
<stop offset="1" stop-color="#F7DD43" stop-opacity="0"/>
</linearGradient>
<linearGradient id="paint84_linear_175_1815" x1="1537.5" y1="727" x2="1537.5" y2="1025.82" gradientUnits="userSpaceOnUse">
<stop stop-color="#F7DD43"/>
<stop offset="1" stop-color="#F7DD43" stop-opacity="0"/>
</linearGradient>
<linearGradient id="paint85_linear_175_1815" x1="1537.5" y1="727" x2="1537.5" y2="1025.82" gradientUnits="userSpaceOnUse">
<stop stop-color="#F7DD43"/>
<stop offset="1" stop-color="#F7DD43" stop-opacity="0"/>
</linearGradient>
<linearGradient id="paint86_linear_175_1815" x1="1537.5" y1="727" x2="1537.5" y2="1025.82" gradientUnits="userSpaceOnUse">
<stop stop-color="#F7DD43"/>
<stop offset="1" stop-color="#F7DD43" stop-opacity="0"/>
</linearGradient>
<linearGradient id="paint87_linear_175_1815" x1="1537.5" y1="727" x2="1537.5" y2="1025.82" gradientUnits="userSpaceOnUse">
<stop stop-color="#F7DD43"/>
<stop offset="1" stop-color="#F7DD43" stop-opacity="0"/>
</linearGradient>
<linearGradient id="paint88_linear_175_1815" x1="1537.5" y1="727" x2="1537.5" y2="1025.82" gradientUnits="userSpaceOnUse">
<stop stop-color="#F7DD43"/>
<stop offset="1" stop-color="#F7DD43" stop-opacity="0"/>
</linearGradient>
<linearGradient id="paint89_linear_175_1815" x1="1537.5" y1="727" x2="1537.5" y2="1025.82" gradientUnits="userSpaceOnUse">
<stop stop-color="#F7DD43"/>
<stop offset="1" stop-color="#F7DD43" stop-opacity="0"/>
</linearGradient>
<linearGradient id="paint90_linear_175_1815" x1="1537.5" y1="727" x2="1537.5" y2="1025.82" gradientUnits="userSpaceOnUse">
<stop stop-color="#F7DD43"/>
<stop offset="1" stop-color="#F7DD43" stop-opacity="0"/>
</linearGradient>
<linearGradient id="paint91_linear_175_1815" x1="1537.5" y1="727" x2="1537.5" y2="1025.82" gradientUnits="userSpaceOnUse">
<stop stop-color="#F7DD43"/>
<stop offset="1" stop-color="#F7DD43" stop-opacity="0"/>
</linearGradient>
<linearGradient id="paint92_linear_175_1815" x1="1537.5" y1="727" x2="1537.5" y2="1025.82" gradientUnits="userSpaceOnUse">
<stop stop-color="#F7DD43"/>
<stop offset="1" stop-color="#F7DD43" stop-opacity="0"/>
</linearGradient>
<linearGradient id="paint93_linear_175_1815" x1="1537.5" y1="727" x2="1537.5" y2="1025.82" gradientUnits="userSpaceOnUse">
<stop stop-color="#F7DD43"/>
<stop offset="1" stop-color="#F7DD43" stop-opacity="0"/>
</linearGradient>
</defs>
</svg>
